<?xml version="1.0" encoding="utf-8"?>
<!-- Svg Vector Icons : http://www.onlinewebfonts.com/icon -->
<!DOCTYPE svg PUBLIC "-//W3C//DTD SVG 1.1//EN" "http://www.w3.org/Graphics/SVG/1.1/DTD/svg11.dtd">
<svg version="1.1" xmlns="http://www.w3.org/2000/svg" xmlns:xlink="http://www.w3.org/1999/xlink" x="0px" y="0px" viewBox="0 0 1000 1000" enable-background="new 0 0 1000 1000" xml:space="preserve">
<metadata> Svg Vector Icons : http://www.onlinewebfonts.com/icon </metadata>
<g><g transform="translate(0.000000,511.000000) scale(0.100000,-0.100000)"><path d="M4191.8,4099.5c-849.3-37.2-1645.7-156.5-1898.1-285.7c-119.4-60.7-285.7-213.3-364-336.6c-31.3-48.9-168.3-393.3-305.3-765.1c-137-371.8-260.3-704.5-274-737.7l-27.4-64.6H953.2c-432.5,0-499-15.6-649.7-150.7C154.8,1624,100,1506.6,100,1312.9c0-131.1,7.8-172.2,52.8-258.3c115.5-225,309.2-338.5,571.4-338.5c103.7,0,146.8-7.8,146.8-23.5c0-13.7-43.1-144.8-95.9-289.6C599-82.3,606.8,19.4,606.8-1749.6v-1555.7l62.6-127.2c248.5-506.8,896.2-618.4,1289.6-227c178.1,178.1,242.7,381.6,242.7,759.3v211.3H5000h2798.3v-219.2c0-121.3,13.7-281.8,29.4-356.2c68.5-322.9,320.9-561.6,655.5-622.3c336.6-58.7,704.5,142.9,857.1,467.7l52.9,113.5v1555.7c0,1769,7.9,1667.2-168.3,2152.5c-52.9,144.8-95.9,275.9-95.9,289.6c0,15.7,43,23.5,146.8,23.5c262.2,0,455.9,113.5,571.4,338.5c43.1,84.2,52.9,129.2,52.9,248.5c2,193.7-52.9,319-195.7,448.1c-156.5,142.9-221.1,158.5-661.4,158.5h-373.8l-262.2,720.1c-144.8,395.3-283.8,757.3-311.2,806.2c-74.3,131.1-244.6,301.4-373.8,369.8C7295.3,4032.9,5696.6,4166,4191.8,4099.5z M7598.7,2226.7c162.4-491.2,297.5-902.1,297.5-909.9c0-7.8-1303.3-13.7-2896.1-13.7c-1592.9,0-2896.1,5.9-2896.1,13.7c0,7.8,135,418.8,297.4,909.9l299.4,896.2H5000h2299.3L7598.7,2226.7z M2252.5,50.7c450.1-219.2,450.1-864.9,0-1078.2c-142.9-66.5-319-76.3-473.6-23.5c-131.1,45-301.4,215.3-346.4,346.4c-111.5,326.8,47,665.3,364,778.8C1931.6,123.1,2123.4,111.4,2252.5,50.7z M8185.7,80.1c313.1-93.9,491.2-452,385.5-774.9C8522.3-839.6,8356-1006,8213.1-1053c-144.8-48.9-352.2-37.2-479.4,27.4c-176.1,88.1-303.3,275.9-320.9,471.6C7371.7-117.6,7765,205.3,8185.7,80.1z"/></g></g>
</svg>