<?xml version="1.0" encoding="utf-8"?>
<!-- Svg Vector Icons : http://www.onlinewebfonts.com/icon -->
<!DOCTYPE svg PUBLIC "-//W3C//DTD SVG 1.1//EN" "http://www.w3.org/Graphics/SVG/1.1/DTD/svg11.dtd">
<svg version="1.1" xmlns="http://www.w3.org/2000/svg" xmlns:xlink="http://www.w3.org/1999/xlink" x="0px" y="0px" viewBox="0 0 1000 1000" enable-background="new 0 0 1000 1000" xml:space="preserve">
<metadata> Svg Vector Icons : http://www.onlinewebfonts.com/icon </metadata>
<g><path d="M132.5,561.3h826.9c8.3,0,15.5,3,21.5,9.1s9.1,13.2,9.1,21.5v214.4H867.5V683.8h-735v122.5H10V224.4c0-8.3,3-15.5,9.1-21.5c6.1-6.1,13.2-9.1,21.5-9.1h61.3c8.3,0,15.5,3,21.5,9.1c6.1,6.1,9.1,13.2,9.1,21.5V561.3L132.5,561.3z M408.1,408.1c0-33.8-12-62.7-35.9-86.6c-23.9-23.9-52.8-35.9-86.6-35.9c-33.8,0-62.7,12-86.6,35.9s-35.9,52.8-35.9,86.6c0,33.8,12,62.7,35.9,86.6c23.9,23.9,52.8,35.9,86.6,35.9c33.8,0,62.7-12,86.6-35.9C396.2,470.8,408.1,441.9,408.1,408.1L408.1,408.1z M990,530.6V500c0-50.7-17.9-94-53.8-129.9c-35.9-35.9-79.2-53.8-129.9-53.8H469.4c-8.3,0-15.5,3-21.5,9.1c-6.1,6.1-9.1,13.2-9.1,21.5v183.8H990L990,530.6z"/></g>
</svg>