<svg width="64" height="64" viewBox="0 0 64 64">
  <path d="M61.82 15C61.6682 14.6416 61.4152 14.3353 61.0919 14.1186C60.7686 13.9019 60.3891 13.7842 60 13.78H3.99996C3.61663 13.7803 3.24144 13.8907 2.91907 14.0981C2.5967 14.3055 2.34072 14.6012 2.18162 14.9499C2.02252 15.2987 1.967 15.6858 2.02166 16.0652C2.07633 16.4447 2.23888 16.8004 2.48996 17.09L30.49 49.53C30.6776 49.7428 30.9085 49.9133 31.1671 50.03C31.4257 50.1468 31.7062 50.2072 31.99 50.2072C32.2737 50.2072 32.5542 50.1468 32.8128 50.03C33.0715 49.9133 33.3023 49.7428 33.49 49.53L61.49 17.09C61.7349 16.8074 61.8957 16.4617 61.954 16.0922C62.0123 15.7228 61.9659 15.3444 61.82 15Z" fill="black"/>
</svg>
