<?xml version="1.0" encoding="iso-8859-1"?>
<!-- Generator: Adobe Illustrator 16.0.0, SVG Export Plug-In . SVG Version: 6.00 Build 0)  -->
<!DOCTYPE svg PUBLIC "-//W3C//DTD SVG 1.1//EN" "http://www.w3.org/Graphics/SVG/1.1/DTD/svg11.dtd">
<svg version="1.1" id="Capa_1" xmlns="http://www.w3.org/2000/svg" xmlns:xlink="http://www.w3.org/1999/xlink" x="0px" y="0px"
	 width="941.4px" height="941.4px" viewBox="0 0 941.4 941.4" style="enable-background:new 0 0 941.4 941.4;" xml:space="preserve"
	>
<g>
	<path d="M271.187,496.6c51.8-12.399,126.399-19.899,199.8-19.899c72.3,0,145.8,7.3,197.5,19.399l36.4-374.7
		C710.787,56.2,659.387,0,593.987,0h-246.5c-65.3,0-116.6,55.9-111,120.9L271.187,496.6z"/>
	<path d="M622.387,849.7c0,27.8,22.6,50.399,50.399,50.399s50.4-22.6,50.4-50.399c0-11.5-3.8-22-10.3-30.5
		c-13.7-23.101-41.5-42.8-81.5-57.7c-30.9-11.5-67.801-19.4-107.2-23.2v-89.8h-106.5v89.8c-39.4,3.8-76.3,11.7-107.2,23.2
		c-44.2,16.4-73.5,38.8-85.4,65.1c-3.6,6.9-5.6,14.801-5.6,23.101c0,27.8,22.6,50.399,50.4,50.399c27.8,0,50.4-22.6,50.4-50.399
		c0-16.4-7.8-30.9-19.899-40.101c7.3-3.8,15.3-7.3,24.1-10.6c35.4-13.2,79.9-21.1,127.1-22.8v68.5
		c-17.899,7.7-30.399,25.5-30.399,46.3c0,27.8,22.6,50.4,50.399,50.4c27.801,0,50.4-22.601,50.4-50.4c0-20.7-12.5-38.5-30.4-46.3
		v-68.4c46.801,1.8,90.9,9.7,125.9,22.8c8.9,3.301,17.2,7,24.5,10.801C630.086,819,622.387,833.5,622.387,849.7z"/>
	<path d="M779.586,559.5V443.4l-59.199-0.2c0,0,1.899,73.2-42.801,86.2c-28.899-8.2-68.5-14.601-112-18.5
		c-30.399-2.7-62.699-4.2-94.6-4.2s-64.2,1.5-94.6,4.2c-43.5,3.899-83.101,10.3-112,18.5c-41.1-14.101-43.1-87-43.1-87h-57.9v117.1
		c0,32.6,26.5,59.1,59.1,59.1h112.5h82.7h106.5h82.7h113.5C753.086,618.6,779.586,592.1,779.586,559.5z"/>
	<path d="M133.487,418.5c0.6,0,1.2,0.1,1.8,0.1h95.4c0-2.1-0.1-4.199-0.3-6.199c-3.1-33.801-31.6-60.3-66.2-60.3
		c-19.3,0-36.7,8.2-48.9,21.4C99.787,390.2,111.287,417.1,133.487,418.5z"/>
	<path d="M809.586,418.3c21.2-2.6,31.601-28.6,16.5-44.899c-12.199-13.2-29.6-21.4-48.899-21.4c-34.9,0-63.5,26.9-66.3,61.1
		c-0.101,1.801-0.2,3.601-0.2,5.4h95.399C807.287,418.5,808.387,418.4,809.586,418.3z"/>
</g>
<g>
</g>
<g>
</g>
<g>
</g>
<g>
</g>
<g>
</g>
<g>
</g>
<g>
</g>
<g>
</g>
<g>
</g>
<g>
</g>
<g>
</g>
<g>
</g>
<g>
</g>
<g>
</g>
<g>
</g>
</svg>
