<?xml version="1.0" encoding="iso-8859-1"?>
<!-- Generator: Adobe Illustrator 18.0.0, SVG Export Plug-In . SVG Version: 6.00 Build 0)  -->
<!DOCTYPE svg PUBLIC "-//W3C//DTD SVG 1.1//EN" "http://www.w3.org/Graphics/SVG/1.1/DTD/svg11.dtd">
<svg version="1.1" id="Capa_1" xmlns="http://www.w3.org/2000/svg" xmlns:xlink="http://www.w3.org/1999/xlink" x="0px" y="0px"
	 viewBox="0 0 488.482 488.482" style="enable-background:new 0 0 488.482 488.482;" xml:space="preserve">
<g>
	<path d="M37.382,322.068c8.435,0,15.273-6.837,15.273-15.273c0-8.435-6.838-31.521-15.273-31.521s-15.273,23.086-15.273,31.521
		C22.109,315.231,28.947,322.068,37.382,322.068z"/>
	<path d="M488.482,352.572h-26.584c0.043-0.393,0.069-0.792,0.069-1.196v-13.584c0-6.001-4.865-10.867-10.867-10.867
		c-6.001,0-10.867,4.865-10.867,10.867v13.584c0,0.404,0.026,0.803,0.069,1.196h-26.584c0,16.394,10.557,30.313,25.24,35.355
		c-2.462,12.257-13.308,21.518-26.279,21.518c-14.781,0-26.806-12.025-26.806-26.806l0.001-46.296
		c0-26.764-21.774-48.539-48.539-48.539c-6.298,0-12.314,1.219-17.841,3.412l-64.387-132.07V80.344
		c15.344-4.655,26.515-18.907,26.515-35.772h-74.764c0,16.865,11.171,31.117,26.515,35.772v78.762l-65.396,131.712
		c-5.247-1.946-10.916-3.013-16.831-3.013c-26.765,0-48.539,21.774-48.539,48.539l0,46.296c0,14.781-12.025,26.806-26.806,26.806
		c-12.971,0-23.817-9.262-26.279-21.519c14.684-5.042,25.241-18.961,25.241-35.354H48.18c0.043-0.393,0.069-0.792,0.069-1.196
		v-13.584c0-6.001-4.865-10.867-10.867-10.867s-10.867,4.865-10.867,10.867v13.584c0,0.404,0.026,0.803,0.069,1.196H0
		c0,17.278,11.726,31.811,27.651,36.095c2.979,23.929,23.429,42.512,48.151,42.512c26.765,0,48.539-21.774,48.539-48.539l0-46.296
		c0-14.78,12.025-26.805,26.806-26.805c9.572,0,17.983,5.047,22.726,12.615h-26.348c0,49.74,37.55,90.703,85.849,96.104v14.785
		c0,6.001,4.865,10.867,10.867,10.867c6.001,0,10.867-4.865,10.867-10.867v-14.785c48.298-5.401,85.849-46.365,85.849-96.104
		h-26.347c4.743-7.568,13.154-12.615,22.726-12.615c14.781,0,26.806,12.025,26.806,26.805l-0.001,46.296
		c0,26.765,21.774,48.539,48.539,48.539c24.722,0,45.171-18.583,48.151-42.511C476.756,384.384,488.482,369.85,488.482,352.572z
		 M186.255,302.879l47.119-94.9v114.175h-35.809C195.327,314.847,191.402,308.276,186.255,302.879z M255.107,322.154v-113.41
		l46.308,94.987c-4.753,5.23-8.377,11.501-10.498,18.423H255.107z"/>
	<path d="M451.1,322.068c8.435,0,15.273-6.837,15.273-15.273c0-8.435-6.838-31.521-15.273-31.521
		c-8.435,0-15.273,23.086-15.273,31.521C435.827,315.231,442.665,322.068,451.1,322.068z"/>
</g>
<g>
</g>
<g>
</g>
<g>
</g>
<g>
</g>
<g>
</g>
<g>
</g>
<g>
</g>
<g>
</g>
<g>
</g>
<g>
</g>
<g>
</g>
<g>
</g>
<g>
</g>
<g>
</g>
<g>
</g>
</svg>
