<?xml version="1.0" standalone="no"?><!DOCTYPE svg PUBLIC "-//W3C//DTD SVG 1.1//EN" "http://www.w3.org/Graphics/SVG/1.1/DTD/svg11.dtd"><svg class="icon" height="512" viewBox="0 0 1024 1024" version="1.1" xmlns="http://www.w3.org/2000/svg"><path d="M933.633 169.51c-26.975-28.789-72.599-30.274-101.389-3.299l-218.239 204.48h-129.877l-218.238-204.48c-28.789-26.975-74.414-25.49-101.389 3.299s-25.49 74.414 3.299 101.389l206.23 193.23v486.142c0 35.77 29.266 65.036 65.036 65.036v0c35.77 0 65.036-29.266 65.036-65.036v-183.63c0 0-1.435-34.43 43.039-34.43h4.782c45.907 0 43.995 34.43 43.995 34.43v183.63c0 35.77 29.266 65.036 65.036 65.036v0c35.77 0 65.036-29.266 65.036-65.036v-487.908l204.343-191.463c28.79-26.975 30.275-72.598 3.3-101.389zM386.491 168.426c0 92.098 74.66 166.758 166.758 166.758s166.758-74.66 166.758-166.758c0-92.098-74.66-166.758-166.758-166.758-92.098 0-166.758 74.66-166.758 166.758z" /></svg>