<?xml version="1.0" encoding="utf-8"?>
<!-- Svg Vector Icons : http://www.onlinewebfonts.com/icon -->
<!DOCTYPE svg PUBLIC "-//W3C//DTD SVG 1.1//EN" "http://www.w3.org/Graphics/SVG/1.1/DTD/svg11.dtd">
<svg version="1.1" xmlns="http://www.w3.org/2000/svg" xmlns:xlink="http://www.w3.org/1999/xlink" x="0px" y="0px" viewBox="0 0 1000 1000" enable-background="new 0 0 1000 1000" xml:space="preserve">
<metadata> Svg Vector Icons : http://www.onlinewebfonts.com/icon </metadata>
<g><g transform="translate(0.000000,512.000000) scale(0.100000,-0.100000)"><path d="M530.3,4981.9c-143.4-49.7-248.6-126.2-313.7-227.6c-118.6-187.4-112.8-28.7-112.8-2914.8V-796H5000h4896.2l-3.8,2673.8l-5.7,2671.9l-63.1,128.1c-70.8,143.4-137.7,210.4-290.7,281.1l-105.2,49.7l-4398.9,3.8C840.2,5016.3,626,5016.3,530.3,4981.9z"/><path d="M107.7-1480.7l5.7-378.7l63.1-126.2c70.8-143.4,137.7-210.4,290.7-281.2l105.2-49.7l1908.7-5.7l1906.8-3.8v-765v-763.1l-684.7-5.7l-682.8-5.7l-128.1-63.1c-221.9-109-323.2-281.2-336.6-571.9c-7.7-168.3-5.7-177.9,40.2-223.8l49.7-49.7H5000h2354.4l49.7,49.7c45.9,45.9,47.8,55.5,40.2,223.8c-13.4,288.8-128.1,476.2-357.7,585.3l-107.1,49.7l-682.8,5.7l-684.7,5.7v763.1v765l1908.7,3.8l1906.8,5.7l107.1,49.7c135.8,63.1,239.1,166.4,302.2,302.2c47.8,103.3,49.7,124.3,55.5,485.8l7.7,376.8H5000H100L107.7-1480.7z M5120.5-1434.8c197-82.2,244.8-338.5,91.8-491.5c-124.3-124.3-300.3-124.3-424.6,0C4550.5-1691.1,4812.6-1304.7,5120.5-1434.8z"/></g></g>
</svg>