<?xml version="1.0" encoding="utf-8"?>
<!-- Generator: Adobe Illustrator 23.0.4, SVG Export Plug-In . SVG Version: 6.00 Build 0)  -->
<svg version="1.2" baseProfile="tiny" id="Layer_2" xmlns="http://www.w3.org/2000/svg" xmlns:xlink="http://www.w3.org/1999/xlink"
	 x="0px" y="0px" viewBox="0 0 201 339" xml:space="preserve">
<path d="M100.25,94.67c-26.41,0-52.83-0.06-79.24,0.08c-3.14,0.02-4.61-0.94-5.87-3.84c-3.55-8.15-7.25-16.26-11.43-24.1
	c-6.23-11.69-3.39-28.16,5.33-37.73c7.37-8.08,16.49-13.38,26.4-17.51C58.89,1.79,83.51-0.63,108.62,0.19
	c11.85,0.38,23.62,1.51,35.13,4.37c16.09,4,31.6,9.36,44.33,20.63c9.69,8.59,13.83,19.37,12.31,32.19c-0.31,2.66-1.37,5.31-2.5,7.78
	c-4.1,9-8.41,17.9-12.54,26.89c-0.87,1.89-1.91,2.68-4.11,2.68C154.24,94.64,127.24,94.67,100.25,94.67z"/>
<path d="M176.26,113.12c-1.5,4.1-2.84,7.81-4.2,11.52c-5.46,14.83-10.03,29.92-13.71,45.3c-3.61,15.08-6.05,30.34-7.53,45.76
	c-0.47,4.88-0.55,9.8-0.92,14.69c-0.98,12.68-11.33,22.4-24.02,22.44c-16.99,0.06-33.99-0.12-50.98,0.03
	c-14.33,0.13-23.32-12.92-23.9-22.42c-0.61-10.04-1.26-20.12-2.7-30.07c-1.57-10.93-3.6-21.85-6.27-32.56
	c-3.01-12.08-6.86-23.95-10.56-35.84c-1.65-5.31-3.79-10.46-5.74-15.67c-1.18-3.14-1-3.46,2.24-3.46c48.14,0,96.29,0.01,144.43,0.02
	C173.53,112.86,174.66,113.01,176.26,113.12z"/>
<path d="M101.38,261.49c10,0,19.99,0,29.99,0c4.47,0,6.09,1.65,6.12,6.19c0.01,2.08,0.03,4.17-0.01,6.25
	c-0.06,3.74-2.2,6.13-5.89,6.46c-11.53,1.03-23.06,2.04-34.59,3.02c-8.96,0.77-17.92,1.54-26.88,2.21
	c-4.88,0.36-6.56-1.29-6.58-6.11c-0.01-3.5-0.01-7,0-10.49c0.02-4.92,2.23-7.24,7.12-7.26c10.24-0.04,20.49-0.01,30.73-0.01
	C101.38,261.65,101.38,261.57,101.38,261.49z"/>
<path d="M63.55,305.62c-0.01-8.26,1.33-9.49,9.56-10.13c13.93-1.07,27.84-2.38,41.76-3.6c5.05-0.44,10.1-0.98,15.16-1.32
	c4.06-0.27,6.01,1.63,6.13,5.71c0.06,2.16,0.08,4.33,0.02,6.49c-0.13,4.14-2.39,6.37-6.49,6.73c-18.06,1.56-36.13,3.17-54.19,4.74
	c-2.24,0.19-4.48,0.34-6.73,0.38c-3.28,0.05-5.09-1.72-5.21-5C63.51,308.29,63.55,306.96,63.55,305.62z"/>
<path d="M114.02,318.48c-0.14,0,0.03,0.01,0.19,0c4.89-0.23,5.41,0.48,3.8,5.3c-2.77,8.35-8.13,13.79-17.11,15.06
	c-8.79,1.25-17.57-5.83-18.49-14.71c-0.23-2.21,0.32-3.24,2.67-3.38c4.82-0.29,9.62-0.78,14.43-1.16
	C104.26,319.21,108.99,318.86,114.02,318.48z"/>
</svg>
