<?xml version="1.0" encoding="utf-8"?>
<!-- Svg Vector Icons : http://www.onlinewebfonts.com/icon -->
<!DOCTYPE svg PUBLIC "-//W3C//DTD SVG 1.1//EN" "http://www.w3.org/Graphics/SVG/1.1/DTD/svg11.dtd">
<svg version="1.1" xmlns="http://www.w3.org/2000/svg" xmlns:xlink="http://www.w3.org/1999/xlink" x="0px" y="0px" viewBox="0 0 1000 1000" enable-background="new 0 0 1000 1000" xml:space="preserve">
<metadata> Svg Vector Icons : http://www.onlinewebfonts.com/icon </metadata>
<g><g transform="translate(0.000000,511.000000) scale(0.100000,-0.100000)"><path d="M4904.5,4981.6c-30.7-12.8-69-53.7-84.3-86.9c-20.5-43.4-28.1-457.5-28.1-1339.3v-1278l-112.5-53.7c-237.7-109.9-396.2-334.8-421.7-595.5l-15.3-148.3l-273.5-97.1C2931.3,1017.2,2202.8,194.2,1947.2-904.9c-71.6-311.8-76.7-948.3-7.7-1260.1c61.3-283.7,148.3-536.8,273.5-792.4c166.1-334.9,84.3-311.9,1124.6-311.9c784.7,0,892-5.1,892-38.3c0-23-30.7-112.4-66.5-199.3c-56.2-127.8-69-199.4-69-363c2.5-383.4,178.9-672.2,513.8-835.8c150.8-76.7,194.3-84.4,388.5-84.4c194.3,0,237.7,7.7,388.5,84.4c334.8,163.6,511.2,452.4,513.7,835.8c0,163.6-12.8,235.2-69,363c-35.8,86.9-66.5,176.4-66.5,199.3c0,33.3,107.4,38.3,892.1,38.3c1040.3,0,958.5-23,1122.1,311.9c754,1528.4,184,3333-1306.1,4148.4c-97.1,53.7-299.1,140.6-447.3,191.7l-273.5,97.1l-15.4,148.3c-25.6,260.7-184,485.6-421.7,595.5l-112.5,53.7v1278c0,879.3-7.7,1295.9-28.1,1336.8c-28.1,61.4-122.7,122.7-184,117.6C4970.9,5009.7,4932.6,4996.9,4904.5,4981.6z M5377.3-3412.3c17.9-76.7,56.3-194.2,84.4-258.1c148.2-334.8-102.2-723.4-465.2-723.4c-363,0-613.4,388.6-465.2,723.4c28.1,63.9,66.5,181.5,84.4,258.1l30.7,143.1h350.2h350.2L5377.3-3412.3z"/></g></g>
</svg>