<?xml version="1.0" encoding="iso-8859-1"?>
<!-- Generator: Adobe Illustrator 19.0.0, SVG Export Plug-In . SVG Version: 6.00 Build 0)  -->
<svg version="1.1" id="Layer_1" xmlns="http://www.w3.org/2000/svg" xmlns:xlink="http://www.w3.org/1999/xlink" x="0px" y="0px"
	 viewBox="0 0 442.54 442.54" style="enable-background:new 0 0 442.54 442.54;" xml:space="preserve">
<g>
	<g>
		<path d="M243.96,276.766h69.545c12.413,0,22.511-10.099,22.511-22.511c0-21.498-17.489-38.987-38.987-38.987h-53.07v-53.275
			h49.069c9.037,0,17.635-3.898,23.589-10.696c5.955-6.797,8.688-15.833,7.499-24.792l-13.175-99.27
			C308.881,11.708,295.516,0,279.853,0H162.689c-15.663,0-29.028,11.708-31.089,27.235l-13.176,99.27
			c-1.189,8.958,1.544,17.995,7.499,24.792s14.553,10.696,23.589,10.696h49.069v53.275h-53.07
			c-21.498,0-38.987,17.489-38.987,38.987c0,12.413,10.099,22.511,22.511,22.511h69.545v97.583h-35.113
			c-12.666,0-22.971,10.304-22.971,22.97v5.104c-7.752,3.016-13.269,10.541-13.269,19.346c0,11.452,9.317,20.77,20.769,20.77
			c11.452,0,20.77-9.317,20.77-20.77c0-8.805-5.518-16.33-13.27-19.346v-5.104c0-4.395,3.576-7.97,7.971-7.97h50.301v13.075
			c-7.752,3.016-13.27,10.541-13.27,19.346c0,11.452,9.317,20.77,20.77,20.77s20.769-9.317,20.769-20.77
			c0-8.805-5.517-16.33-13.269-19.346v-13.075h50.301c4.395,0,7.971,3.575,7.971,7.97v5.104c-7.752,3.016-13.27,10.541-13.27,19.346
			c0,11.452,9.317,20.77,20.77,20.77s20.77-9.317,20.77-20.77c0-8.805-5.518-16.33-13.27-19.346v-5.104
			c0-12.666-10.305-22.97-22.971-22.97h-35.113V306h6.901v3.5c0,4.142,3.358,7.5,7.5,7.5c4.142,0,7.5-3.358,7.5-7.5v-21
			c0-4.142-3.358-7.5-7.5-7.5c-4.142,0-7.5,3.358-7.5,7.5v2.5h-6.901v-14.234H243.96z M147.999,427.539
			c-3.181,0-5.769-2.588-5.769-5.77c0-3.182,2.588-5.77,5.769-5.77c3.181,0,5.77,2.588,5.77,5.77
			C153.77,424.951,151.181,427.539,147.999,427.539z M294.543,415.999c3.182,0,5.77,2.588,5.77,5.77c0,3.182-2.589,5.77-5.77,5.77
			c-3.181,0-5.77-2.588-5.77-5.77C288.772,418.587,291.361,415.999,294.543,415.999z M149.514,146.993
			c-4.714,0-9.2-2.034-12.307-5.58c-3.106-3.546-4.533-8.26-3.913-12.934l13.176-99.27C147.546,21.108,154.519,15,162.689,15
			h117.163c8.171,0,15.145,6.108,16.22,14.209l13.176,99.27c0.62,4.674-0.806,9.388-3.913,12.934
			c-3.106,3.546-7.592,5.58-12.307,5.58H149.514z M228.959,161.993v53.275h-15.376v-53.275H228.959z M221.272,427.539
			c-3.181,0-5.77-2.588-5.77-5.77c0-3.182,2.588-5.77,5.77-5.77s5.769,2.588,5.769,5.77
			C227.04,424.951,224.452,427.539,221.272,427.539z M228.959,374.349h-15.376v-97.583h15.376V374.349z M129.038,261.765
			c-4.142,0.001-7.511-3.369-7.511-7.511c0-13.227,10.76-23.987,23.987-23.987H297.03c13.227,0,23.987,10.76,23.987,23.987
			c0,4.142-3.37,7.511-7.511,7.511H129.038z"/>
	</g>
</g>
<g>
</g>
<g>
</g>
<g>
</g>
<g>
</g>
<g>
</g>
<g>
</g>
<g>
</g>
<g>
</g>
<g>
</g>
<g>
</g>
<g>
</g>
<g>
</g>
<g>
</g>
<g>
</g>
<g>
</g>
</svg>
