<?xml version="1.0" encoding="iso-8859-1"?>
<!-- Generator: Adobe Illustrator 18.1.1, SVG Export Plug-In . SVG Version: 6.00 Build 0)  -->
<svg version="1.1" id="Capa_1" xmlns="http://www.w3.org/2000/svg" xmlns:xlink="http://www.w3.org/1999/xlink" x="0px" y="0px"
	 viewBox="0 0 25.877 25.877" style="enable-background:new 0 0 25.877 25.877;" xml:space="preserve">
<g>
	<path d="M25.26,15.376l-1.322,0.551c0,1.852,0,3.564,0,3.564c0,2.397-2.457,5.947-5.991,5.947H7.929
		c-3.534,0-5.991-3.55-5.991-5.947c0,0,0-1.712,0-3.563l-1.322-0.55c-0.51-0.212-0.751-0.797-0.539-1.307
		c0.212-0.511,0.798-0.753,1.308-0.539l0.553,0.23c0-0.246,0-0.486,0-0.708c0-2.772-1.922-2.35-1.922-2.725
		c0-0.688,0.269-1.891,1.922-1.891h22c1.653,0,1.922,1.203,1.922,1.89c0,0.375-1.922-0.046-1.922,2.726c0,0.222,0,0.461,0,0.708
		l0.555-0.231c0.506-0.212,1.095,0.027,1.307,0.539C26.012,14.58,25.771,15.165,25.26,15.376z M23.938,7.414h-22
		c0,0,2.093-1.834,6.082-2.791c0.393-2.368,2.44-4.185,4.918-4.185s4.525,1.817,4.918,4.185C21.845,5.58,23.938,7.414,23.938,7.414z
		 M15.678,4.228c-0.466-1.052-1.517-1.79-2.74-1.79s-2.274,0.738-2.74,1.79c0.852-0.108,1.762-0.174,2.74-0.174
		S14.826,4.12,15.678,4.228z"/>
</g>
<g>
</g>
<g>
</g>
<g>
</g>
<g>
</g>
<g>
</g>
<g>
</g>
<g>
</g>
<g>
</g>
<g>
</g>
<g>
</g>
<g>
</g>
<g>
</g>
<g>
</g>
<g>
</g>
<g>
</g>
</svg>
