<?xml version="1.0" encoding="utf-8"?>
<!-- Svg Vector Icons : http://www.onlinewebfonts.com/icon -->
<!DOCTYPE svg PUBLIC "-//W3C//DTD SVG 1.1//EN" "http://www.w3.org/Graphics/SVG/1.1/DTD/svg11.dtd">
<svg version="1.1" xmlns="http://www.w3.org/2000/svg" xmlns:xlink="http://www.w3.org/1999/xlink" x="0px" y="0px" viewBox="0 0 1000 1000" enable-background="new 0 0 1000 1000" xml:space="preserve">
<metadata> Svg Vector Icons : http://www.onlinewebfonts.com/icon </metadata>
<g><path d="M427,41.3c0,17.3,14,31.3,31.3,31.3c17.3,0,31.3-14,31.3-31.3c0-17.3-14-31.3-31.3-31.3C441,10,427,24,427,41.3z"/><path d="M510.4,41.3c0,17.3,14,31.3,31.3,31.3c17.3,0,31.3-14,31.3-31.3C573,24,559,10,541.7,10C524.4,10,510.4,24,510.4,41.3z"/><path d="M686.2,765c55.2-17.2,95.3-68.6,95.3-129.4v-417C781.5,143.7,720.8,83,646,83H354c-74.9,0-135.5,60.7-135.5,135.5v417c0,60.8,40.1,112.3,95.3,129.4l-137,225h93.8l93.8-156.4h271.1L729.4,990h93.8L686.2,765z M646,708.5c-28.8,0-52.1-23.3-52.1-52.1c0-28.8,23.3-52.1,52.1-52.1s52.1,23.3,52.1,52.1C698.1,685.2,674.7,708.5,646,708.5z M416.6,124.7c0-11.5,9.3-20.9,20.9-20.9h125.1c11.5,0,20.8,9.3,20.8,20.9v41.7c0,11.5-9.3,20.9-20.8,20.9H437.4c-11.5,0-20.9-9.3-20.9-20.9V124.7L416.6,124.7z M291.5,270.6c0-34.5,28-62.6,62.6-62.6H646c34.5,0,62.6,28,62.6,62.6V354c0,34.5-28,62.6-62.6,62.6H354c-34.5,0-62.6-28-62.6-62.6V270.6L291.5,270.6z M354,604.3c28.8,0,52.1,23.3,52.1,52.1c0,28.8-23.3,52.1-52.1,52.1s-52.1-23.3-52.1-52.1C301.9,627.6,325.3,604.3,354,604.3z"/></g>
</svg>