<?xml version="1.0" encoding="utf-8"?>
<!-- Generator: Adobe Illustrator 15.1.0, SVG Export Plug-In . SVG Version: 6.00 Build 0)  -->
<!DOCTYPE svg PUBLIC "-//W3C//DTD SVG 1.1//EN" "http://www.w3.org/Graphics/SVG/1.1/DTD/svg11.dtd">
<svg version="1.1" id="Layer_1" xmlns="http://www.w3.org/2000/svg" xmlns:xlink="http://www.w3.org/1999/xlink" x="0px" y="0px"
	 width="56.69px" height="56.69px" viewBox="0 0 56.69 56.69" enable-background="new 0 0 56.69 56.69" xml:space="preserve">
<path d="M44.592,24.116c3.504,0,6.484,1.014,7.639,2.436C50.666,15.186,41.19,6.374,29.538,5.803V5.199c0-0.552-0.447-1-1-1
	c-0.552,0-1,0.448-1,1v0.583C15.709,6.175,6.041,15.06,4.46,26.55c1.154-1.421,4.133-2.434,7.636-2.434
	c4.084,0,7.459,1.376,8.052,3.173c0,0,0,0,0,0.001c0.04,0.121,0.068,0.244,0.082,0.369c0.206-1.849,3.333-3.341,7.309-3.523v17.522
	h-0.459c-0.598,0-1.083,0.485-1.083,1.083s0.485,1.083,1.083,1.083h0.459v3.084c0,3.078,2.505,5.583,5.583,5.583
	s5.583-2.505,5.583-5.583c0-0.553-0.447-1-1-1s-1,0.447-1,1c0,1.976-1.607,3.583-3.583,3.583s-3.583-1.607-3.583-3.583v-3.084h0.375
	c0.598,0,1.083-0.485,1.083-1.083s-0.485-1.083-1.083-1.083h-0.375V24.159c3.686,0.244,6.574,1.612,6.94,3.325
	c0.015-0.069,0.041-0.136,0.064-0.203c0,0.001,0,0.001,0,0.001C37.143,25.489,40.513,24.116,44.592,24.116z M36.496,24.264
	c-1.987-1.467-5.142-2.147-8.134-2.147c-3.435,0-6.326,0.82-8.133,2.175c-2.005-1.487-5.191-2.175-8.134-2.175
	c-1.686,0-3.275,0.207-4.673,0.589C10.355,14.18,18.383,8.063,27.622,7.76c0,0,2.093-0.096,5.794,0.583
	c6.663,1.398,13.39,7.208,15.852,14.363c-1.398-0.382-2.989-0.59-4.676-0.59C41.671,22.116,38.505,22.795,36.496,24.264z"/>
</svg>
