<?xml version="1.0" encoding="utf-8"?>
<!-- Generator: Adobe Illustrator 15.1.0, SVG Export Plug-In . SVG Version: 6.00 Build 0)  -->
<!DOCTYPE svg PUBLIC "-//W3C//DTD SVG 1.1//EN" "http://www.w3.org/Graphics/SVG/1.1/DTD/svg11.dtd">
<svg version="1.1" id="Layer_1" xmlns="http://www.w3.org/2000/svg" xmlns:xlink="http://www.w3.org/1999/xlink" x="0px" y="0px"
	 width="56.69px" height="56.69px" viewBox="0 0 56.69 56.69" enable-background="new 0 0 56.69 56.69" xml:space="preserve">
<path d="M28.345,13.053c-8.434,0-15.293,6.86-15.293,15.292c0,8.433,6.859,15.294,15.293,15.294c8.432,0,15.292-6.861,15.292-15.294
	C43.637,19.913,36.777,13.053,28.345,13.053z M28.345,41.64c-7.33,0-13.293-5.965-13.293-13.294s5.963-13.292,13.293-13.292
	c7.331,0,13.292,5.963,13.292,13.292S35.676,41.64,28.345,41.64z M25.521,8.42l0.016-0.024c0-0.001-0.002-0.006-0.002-0.006
	c0-0.819,2.1-4.27,2.809-4.257c0.711,0.008,2.809,3.438,2.809,4.257c0,0,0,0.005,0,0.006L31.17,8.42h-0.02
	c-0.021,1.266-1.266,2.292-2.807,2.292c-1.537,0-2.781-1.026-2.805-2.292H25.521z M31.152,48.271h0.018l-0.016,0.023
	c0,0,0,0.006,0,0.008c0,0.818-2.096,4.266-2.809,4.256c-0.709-0.008-2.807-3.438-2.807-4.256c0-0.002,0-0.008,0-0.008l-0.018-0.023
	h0.021c0.02-1.266,1.264-2.291,2.803-2.291C29.885,45.979,31.131,47.005,31.152,48.271z M52.559,28.344
	c-0.008,0.711-3.438,2.809-4.256,2.809c-0.004,0-0.008,0-0.008,0l-0.025,0.016v-0.018c-1.264-0.021-2.289-1.268-2.289-2.807
	c0-1.538,1.025-2.784,2.289-2.806v-0.018l0.025,0.016c0,0,0.004,0,0.008,0C49.121,25.537,52.568,27.632,52.559,28.344z
	 M10.712,28.347c0,1.537-1.025,2.783-2.291,2.806v0.016l-0.025-0.014c-0.002,0-0.004,0.002-0.006,0.002
	c-0.818,0-4.27-2.1-4.258-2.81c0.008-0.711,3.439-2.809,4.258-2.809c0.002,0,0.004,0,0.006,0l0.025-0.018v0.02
	C9.687,25.562,10.712,26.806,10.712,28.347z M12.248,16.221c-0.578-0.579-1.535-4.5-1.025-4.997s4.418,0.446,4.998,1.025
	c0,0,0.004,0.002,0.004,0.005l0.027,0.006l-0.012,0.014c0.879,0.91,0.725,2.514-0.363,3.603c-1.088,1.087-2.693,1.244-3.605,0.364
	l-0.01,0.01l-0.008-0.026C12.251,16.224,12.251,16.224,12.248,16.221z M44.443,40.472c0.58,0.576,1.535,4.498,1.023,4.994
	c-0.508,0.498-4.416-0.445-4.996-1.021c0-0.004-0.004-0.006-0.004-0.008l-0.027-0.008l0.014-0.012
	c-0.881-0.912-0.727-2.516,0.361-3.602c1.088-1.088,2.693-1.246,3.605-0.367l0.01-0.01l0.008,0.027
	C44.439,40.466,44.443,40.466,44.443,40.472z M40.449,12.271l-0.01-0.01l0.027-0.006c0-0.004,0-0.005,0.004-0.008
	c0.578-0.579,4.5-1.533,4.994-1.025c0.498,0.508-0.445,4.419-1.021,4.997c-0.002,0.002-0.004,0.005-0.008,0.006l-0.006,0.026
	l-0.014-0.013c-0.91,0.88-2.514,0.726-3.602-0.363C39.727,14.788,39.57,13.183,40.449,12.271z M16.242,44.421l0.01,0.008
	l-0.027,0.01c0,0,0,0.006-0.004,0.006c-0.576,0.578-4.498,1.535-4.996,1.021c-0.498-0.506,0.447-4.416,1.027-4.994
	c0,0,0.002-0.006,0.004-0.006l0.006-0.027l0.014,0.012c0.91-0.879,2.514-0.723,3.602,0.365
	C16.964,41.901,17.123,43.509,16.242,44.421z M25.738,23.503h1.938v5.813c0,0.535-0.1,1.039-0.303,1.509
	c-0.203,0.471-0.479,0.881-0.832,1.229c-0.352,0.35-0.762,0.627-1.232,0.83c-0.471,0.201-0.973,0.303-1.51,0.303
	c-0.535,0-1.039-0.102-1.51-0.303c-0.469-0.203-0.879-0.48-1.229-0.83c-0.35-0.348-0.623-0.758-0.826-1.229
	c-0.201-0.47-0.305-0.974-0.305-1.509v-5.813h1.934v5.813c0,0.265,0.049,0.515,0.15,0.751c0.1,0.234,0.24,0.438,0.416,0.614
	c0.176,0.175,0.381,0.313,0.617,0.415c0.236,0.1,0.486,0.152,0.752,0.152c0.268,0,0.518-0.053,0.752-0.152
	c0.238-0.103,0.443-0.24,0.621-0.415c0.174-0.176,0.313-0.38,0.414-0.614c0.102-0.236,0.152-0.486,0.152-0.751V23.503z
	 M34.545,23.503h2.215l-3.18,9.683h-1.939l-3.167-9.683h2.202l1.932,6.46L34.545,23.503z"/>
</svg>
