<?xml version="1.0" encoding="utf-8"?>
<!-- Generator: Adobe Illustrator 15.1.0, SVG Export Plug-In . SVG Version: 6.00 Build 0)  -->
<!DOCTYPE svg PUBLIC "-//W3C//DTD SVG 1.1//EN" "http://www.w3.org/Graphics/SVG/1.1/DTD/svg11.dtd">
<svg version="1.1" id="Layer_1" xmlns="http://www.w3.org/2000/svg" xmlns:xlink="http://www.w3.org/1999/xlink" x="0px" y="0px"
	 width="56.69px" height="56.69px" viewBox="0 0 56.69 56.69" enable-background="new 0 0 56.69 56.69" xml:space="preserve">
<path d="M49.98,19.711c0.078-0.601,0.117-1.168,0.117-1.72c0-7.642-6.217-13.857-13.859-13.857c-4.576,0-8.874,2.298-11.442,6.058
	c-1.289-0.665-2.717-1.013-4.183-1.013c-4.743,0-8.654,3.633-9.096,8.297C6.61,18.315,3.01,22.521,3.01,27.594
	c0,5.666,4.611,10.276,10.278,10.276h30.114c5.666,0,10.277-4.61,10.277-10.276C53.68,24.512,52.34,21.672,49.98,19.711z
	 M43.402,35.87H13.289c-4.564,0-8.278-3.713-8.278-8.276c0-4.322,3.247-7.863,7.554-8.237l0.911-0.12v-0.917
	c0-3.938,3.202-7.141,7.139-7.141c1.413,0,2.781,0.414,3.956,1.197l0.885,0.591l0.534-0.92c2.121-3.647,6.048-5.913,10.25-5.913
	c6.539,0,11.859,5.319,11.859,11.857c0,0.618-0.059,1.266-0.18,1.98l-0.102,0.606l0.494,0.364c2.141,1.582,3.369,4.007,3.369,6.651
	C51.68,32.157,47.967,35.87,43.402,35.87z M16.636,41.23L16.604,51.56c-0.002,0.552-0.449,0.997-1,0.997c-0.001,0-0.002,0-0.003,0
	c-0.553-0.002-0.999-0.451-0.997-1.003l0.032-10.329c0.002-0.552,0.449-0.997,1-0.997c0.001,0,0.002,0,0.003,0
	C16.192,40.229,16.638,40.679,16.636,41.23z M23.358,41.226l-0.022,7.215c-0.002,0.552-0.449,0.997-1,0.997
	c-0.001,0-0.002,0-0.003,0c-0.553-0.002-0.999-0.451-0.997-1.003l0.022-7.215c0.002-0.552,0.449-0.997,1-0.997
	c0.001,0,0.002,0,0.003,0C22.914,40.225,23.36,40.674,23.358,41.226z M30.088,41.221L30.055,51.55c-0.002,0.552-0.449,0.997-1,0.997
	h-0.002c-0.553-0.002-1-0.451-0.998-1.003l0.033-10.329c0.002-0.552,0.449-0.997,1-0.997c0.002,0,0.002,0,0.004,0
	C29.645,40.22,30.09,40.669,30.088,41.221z M36.811,41.217l-0.023,7.215c-0.002,0.552-0.449,0.997-1,0.997h-0.002
	c-0.553-0.002-1-0.451-0.998-1.003l0.023-7.215c0.002-0.553,0.42-1.034,1.002-0.997C36.365,40.216,36.813,40.665,36.811,41.217z
	 M43.539,41.212l-0.031,10.329c-0.002,0.552-0.449,0.997-1,0.997c-0.002,0-0.002,0-0.004,0c-0.553-0.002-0.998-0.451-0.996-1.003
	l0.031-10.329c0.002-0.552,0.449-0.997,1-0.997c0.002,0,0.002,0,0.004,0C43.096,40.211,43.541,40.66,43.539,41.212z"/>
</svg>
