<?xml version="1.0" encoding="utf-8"?>
<!-- Generator: Adobe Illustrator 15.1.0, SVG Export Plug-In . SVG Version: 6.00 Build 0)  -->
<!DOCTYPE svg PUBLIC "-//W3C//DTD SVG 1.1//EN" "http://www.w3.org/Graphics/SVG/1.1/DTD/svg11.dtd">
<svg version="1.1" id="Layer_1" xmlns="http://www.w3.org/2000/svg" xmlns:xlink="http://www.w3.org/1999/xlink" x="0px" y="0px"
	 width="56.69px" height="56.69px" viewBox="0 0 56.69 56.69" enable-background="new 0 0 56.69 56.69" xml:space="preserve">
<path d="M51.59,28.291c-1.139,0.288-2.307,0.433-3.469,0.433c-6.367,0-11.979-4.296-13.646-10.447
	c-1.301-4.793-0.035-9.814,3.381-13.431l1.693-1.792L37.086,3.16c-1.307,0.057-2.596,0.255-3.83,0.591
	c-4.504,1.221-8.263,4.122-10.584,8.17c-2.076,3.621-2.769,7.772-2.021,11.829c-0.773-0.152-1.561-0.253-2.364-0.253
	c-6.839,0-12.402,5.563-12.402,12.399c0,0.475,0.032,0.963,0.098,1.479c-2.06,1.745-3.273,4.332-3.273,7.035
	c0,5.087,4.139,9.226,9.227,9.226h26.698c5.088,0,9.227-4.139,9.227-9.226c0-3.085-1.484-5.81-3.811-7.483
	c3.575-1.359,6.603-3.848,8.637-7.142l1.297-2.099L51.59,28.291z M45.859,44.411c0,3.984-3.242,7.226-7.227,7.226H11.935
	c-3.984,0-7.227-3.241-7.227-7.226c0-2.31,1.072-4.426,2.941-5.806l0.494-0.365l-0.102-0.605c-0.106-0.631-0.158-1.199-0.158-1.738
	c0-5.734,4.666-10.399,10.402-10.399c1.207,0,2.381,0.232,3.489,0.632c0.257,0.092,0.511,0.19,0.759,0.301
	c0.039,0.018,0.075,0.039,0.113,0.056c0.424,0.196,0.829,0.423,1.22,0.672c0.153,0.098,0.305,0.196,0.452,0.301
	c0.153,0.109,0.303,0.221,0.45,0.337c0.241,0.193,0.476,0.394,0.699,0.609c0.093,0.088,0.183,0.18,0.273,0.272
	c0.224,0.231,0.439,0.473,0.643,0.726c0.074,0.092,0.146,0.185,0.217,0.279c0.24,0.32,0.471,0.65,0.675,1.001l0.534,0.919
	l0.885-0.59c1.024-0.682,2.213-1.043,3.444-1.043c3.428,0,6.217,2.789,6.215,6.254v0.916v0.001l0.912,0.079
	c0.291,0.025,0.584,0.071,0.876,0.136c0.01,0.002,0.02,0.004,0.029,0.006c0.291,0.065,0.582,0.148,0.87,0.25l0.271,0.097
	l0.013-0.003C44.013,38.768,45.859,41.366,45.859,44.411z M41.871,35.539c-0.137,0.037-0.275,0.063-0.412,0.091l-0.012,0.003
	c-0.369-0.116-0.745-0.219-1.135-0.289c-0.148-1.452-0.684-2.788-1.49-3.917c-0.055-0.077-0.104-0.158-0.162-0.233
	c-0.048-0.062-0.102-0.118-0.151-0.179c-0.106-0.131-0.211-0.264-0.325-0.388c-0.038-0.041-0.08-0.078-0.119-0.118
	c-0.132-0.138-0.265-0.274-0.405-0.403c-0.003-0.002-0.006-0.004-0.009-0.007c-0.545-0.494-1.156-0.917-1.819-1.251
	c-0.002,0-0.003-0.001-0.004-0.002c-0.665-0.335-1.382-0.583-2.136-0.728c-0.503-0.097-1.021-0.147-1.553-0.147
	c-1.283,0-2.535,0.297-3.67,0.866c-0.252-0.363-0.53-0.705-0.819-1.037c-0.069-0.08-0.137-0.161-0.208-0.238
	c-0.273-0.298-0.559-0.583-0.859-0.853c-0.104-0.093-0.21-0.18-0.317-0.269c-0.227-0.191-0.46-0.373-0.701-0.547
	c-0.184-0.134-0.371-0.261-0.562-0.385c-0.22-0.142-0.443-0.278-0.672-0.406c-0.194-0.109-0.391-0.213-0.591-0.312
	c-0.147-0.072-0.299-0.137-0.45-0.203c-0.156-0.07-0.308-0.148-0.467-0.211c-2.045-8.143,2.818-16.487,10.957-18.693
	c0.338-0.092,0.682-0.173,1.029-0.241c-2.674,3.879-3.523,8.713-2.264,13.359c1.902,7.021,8.307,11.924,15.576,11.924
	c0.488,0,0.977-0.021,1.463-0.066C47.574,33.015,44.902,34.718,41.871,35.539z"/>
</svg>
