<?xml version="1.0" encoding="utf-8"?>
<!-- Generator: Adobe Illustrator 15.1.0, SVG Export Plug-In . SVG Version: 6.00 Build 0)  -->
<!DOCTYPE svg PUBLIC "-//W3C//DTD SVG 1.1//EN" "http://www.w3.org/Graphics/SVG/1.1/DTD/svg11.dtd">
<svg version="1.1" id="Layer_1" xmlns="http://www.w3.org/2000/svg" xmlns:xlink="http://www.w3.org/1999/xlink" x="0px" y="0px"
	 width="56.69px" height="56.69px" viewBox="0 0 56.69 56.69" enable-background="new 0 0 56.69 56.69" xml:space="preserve">
<path d="M49.98,20.655c0.078-0.597,0.117-1.164,0.117-1.721c0-7.641-6.217-13.857-13.859-13.857c-4.576,0-8.873,2.298-11.441,6.059
	c-1.29-0.665-2.718-1.014-4.184-1.014c-4.743,0-8.654,3.634-9.096,8.298C6.61,19.26,3.01,23.465,3.01,28.537
	c0,5.667,4.611,10.277,10.279,10.277h30.113c5.668,0,10.277-4.61,10.277-10.277C53.68,25.455,52.34,22.615,49.98,20.655z
	 M43.402,36.814H13.29c-4.565,0-8.279-3.713-8.279-8.277c0-4.251,3.317-7.869,7.554-8.237l0.911-0.12v-0.917
	c0-3.938,3.202-7.141,7.139-7.141c1.413,0,2.781,0.414,3.957,1.198l0.885,0.59l0.534-0.92c2.121-3.647,6.047-5.913,10.249-5.913
	c6.539,0,11.859,5.319,11.859,11.857c0,0.624-0.059,1.271-0.178,1.979l-0.104,0.607l0.494,0.365c2.141,1.581,3.369,4.005,3.369,6.65
	C51.68,33.102,47.967,36.814,43.402,36.814z M16.618,48.155l-0.008,2.461c-0.002,0.552-0.449,0.997-1,0.997
	c-0.001,0-0.002,0-0.003,0c-0.553-0.002-0.999-0.451-0.997-1.003l0.008-2.461c0.002-0.552,0.449-0.997,1-0.997
	c0.001,0,0.002,0,0.003,0C16.173,47.154,16.62,47.604,16.618,48.155z M16.637,42.155l-0.01,3c-0.002,0.552-0.449,0.997-1,0.997
	c-0.001,0-0.002,0-0.003,0c-0.553-0.002-0.999-0.451-0.997-1.003l0.01-3c0.002-0.553,0.454-1.001,1.003-0.997
	C16.193,41.154,16.639,41.604,16.637,42.155z M23.358,42.154l-0.002,1c-0.001,0.552-0.448,0.998-1,0.998c-0.001,0-0.001,0-0.002,0
	c-0.553-0.001-0.999-0.449-0.998-1.002l0.002-1c0.001-0.552,0.448-0.998,1-0.998c0.001,0,0.001,0,0.002,0
	C22.913,41.153,23.359,41.602,23.358,42.154z M23.342,47.064l-0.002,1c-0.001,0.552-0.448,0.998-1,0.998c-0.001,0-0.001,0-0.002,0
	c-0.553-0.001-0.999-0.449-0.998-1.002l0.002-1c0.001-0.552,0.448-0.998,1-0.998c0.001,0,0.001,0,0.002,0
	C22.897,46.063,23.343,46.512,23.342,47.064z M30.068,48.155l-0.008,2.461c-0.002,0.552-0.449,0.997-1,0.997h-0.002
	c-0.553-0.002-1-0.451-0.998-1.003l0.008-2.461c0.002-0.552,0.449-0.997,1-0.997c0.002,0,0.002,0,0.004,0
	C29.625,47.154,30.07,47.604,30.068,48.155z M30.088,42.155l-0.01,3c-0.002,0.552-0.449,0.997-1,0.997h-0.002
	c-0.553-0.002-1-0.451-0.998-1.003l0.01-3c0.002-0.552,0.449-0.997,1-0.997c0.002,0,0.002,0,0.004,0
	C29.645,41.154,30.09,41.604,30.088,42.155z M36.811,42.156l-0.004,1c-0.002,0.551-0.449,0.996-1,0.996c0,0-0.002,0-0.004,0
	c-0.553-0.002-0.998-0.451-0.996-1.004l0.004-1c0.002-0.551,0.449-0.996,1-0.996c0.002,0,0.004,0,0.004,0
	C36.367,41.154,36.813,41.604,36.811,42.156z M36.795,47.066l-0.004,1c-0.002,0.551-0.449,0.996-1,0.996c0,0-0.002,0-0.004,0
	c-0.553-0.002-0.998-0.451-0.996-1.004l0.004-1c0.002-0.551,0.449-0.996,1-0.996c0.002,0,0.004,0,0.004,0
	C36.352,46.064,36.797,46.514,36.795,47.066z M43.521,48.155l-0.008,2.461c-0.002,0.552-0.449,0.997-1,0.997h-0.002
	c-0.553-0.002-1-0.451-0.998-1.003l0.008-2.461c0.002-0.552,0.449-0.997,1-0.997c0.002,0,0.002,0,0.004,0
	C43.078,47.154,43.523,47.604,43.521,48.155z M43.539,42.155l-0.008,3c-0.002,0.551-0.449,0.997-1,0.997c-0.002,0-0.002,0-0.004,0
	c-0.553-0.002-0.998-0.45-0.996-1.003l0.008-3c0.002-0.552,0.449-0.997,1-0.997c0.002,0,0.002,0,0.004,0
	C43.096,41.154,43.541,41.603,43.539,42.155z"/>
</svg>
