<?xml version="1.0" encoding="utf-8"?>
<!-- Generator: Adobe Illustrator 15.1.0, SVG Export Plug-In . SVG Version: 6.00 Build 0)  -->
<!DOCTYPE svg PUBLIC "-//W3C//DTD SVG 1.1//EN" "http://www.w3.org/Graphics/SVG/1.1/DTD/svg11.dtd">
<svg version="1.1" id="Layer_1" xmlns="http://www.w3.org/2000/svg" xmlns:xlink="http://www.w3.org/1999/xlink" x="0px" y="0px"
	 width="56.69px" height="56.69px" viewBox="0 0 56.69 56.69" enable-background="new 0 0 56.69 56.69" xml:space="preserve">
<path d="M23.081,7.695l0.012-0.019c0-0.001-0.001-0.005-0.001-0.005c0-0.639,1.636-3.328,2.188-3.318
	c0.555,0.006,2.189,2.68,2.189,3.318c0,0,0,0.004,0,0.005l0.014,0.019h-0.016c-0.017,0.986-0.986,1.786-2.188,1.786
	c-1.198,0-2.168-0.8-2.187-1.786H23.081z M9.728,25.415c0.001,0,0.004-0.001,0.005-0.001l0.02,0.011v-0.013
	c0.986-0.018,1.785-0.988,1.785-2.187c0-1.2-0.799-2.17-1.785-2.187v-0.015l-0.02,0.013c-0.001,0-0.004,0-0.005,0
	c-0.638,0-3.313,1.635-3.318,2.188C6.401,23.779,9.09,25.415,9.728,25.415z M12.74,13.778l0.005,0.021l0.008-0.008
	c0.711,0.686,1.962,0.563,2.811-0.284c0.848-0.849,0.969-2.099,0.283-2.808l0.01-0.011l-0.021-0.005
	c-0.001-0.002-0.003-0.004-0.003-0.004c-0.452-0.451-3.499-1.186-3.896-0.799c-0.397,0.387,0.348,3.443,0.799,3.895
	C12.737,13.777,12.737,13.777,12.74,13.778z M35,13.505c0.848,0.849,2.098,0.969,2.807,0.283l0.012,0.01l0.004-0.021
	c0.002-0.001,0.004-0.003,0.006-0.005c0.449-0.45,1.186-3.498,0.797-3.895c-0.387-0.396-3.443,0.348-3.893,0.799
	c-0.004,0.002-0.004,0.003-0.004,0.006l-0.021,0.005l0.008,0.008C34.029,11.407,34.152,12.658,35,13.505z M53.68,42.061
	c0,5.667-4.611,10.277-10.277,10.277H13.289c-5.667,0-10.278-4.61-10.278-10.277c0-5.073,3.6-9.279,8.508-10.118
	c0.185-1.953,0.983-3.72,2.191-5.12c-0.37-1.178-0.568-2.385-0.568-3.598c0-6.693,5.446-12.14,12.141-12.14
	c4.938,0,9.352,2.998,11.213,7.528c7.523,0.139,13.603,6.29,13.603,13.845c0,0.552-0.039,1.119-0.117,1.721
	C52.34,36.139,53.68,38.979,53.68,42.061z M15.141,23.224c0,0.696,0.074,1.391,0.222,2.078c0.061-0.043,0.129-0.072,0.19-0.114
	c0.298-0.2,0.604-0.389,0.926-0.553c0.095-0.048,0.194-0.088,0.291-0.133c0.283-0.132,0.574-0.249,0.872-0.353
	c0.104-0.036,0.206-0.075,0.312-0.107c0.366-0.112,0.742-0.198,1.125-0.263c0.095-0.016,0.191-0.028,0.287-0.041
	c0.409-0.057,0.823-0.095,1.248-0.095c1.465,0,2.893,0.348,4.182,1.012c0.313-0.459,0.655-0.89,1.014-1.303
	c0.044-0.05,0.092-0.096,0.137-0.145c0.327-0.366,0.672-0.712,1.033-1.039c0.044-0.04,0.089-0.077,0.134-0.116
	c0.375-0.331,0.768-0.64,1.175-0.926c0.036-0.025,0.072-0.05,0.108-0.075c0.424-0.292,0.862-0.56,1.316-0.803
	c0.029-0.016,0.058-0.032,0.087-0.048c0.465-0.244,0.941-0.464,1.433-0.654c0.023-0.009,0.047-0.021,0.071-0.03
	c0.979-0.372,2.001-0.644,3.06-0.786c-1.691-3.424-5.195-5.647-9.082-5.647C19.69,13.084,15.141,17.633,15.141,23.224z
	 M51.68,42.061c0-2.645-1.229-5.069-3.369-6.651l-0.494-0.365l0.102-0.605c0.121-0.716,0.18-1.364,0.18-1.981
	c0-6.535-5.314-11.852-11.85-11.857l-0.034,0.001c-0.271,0.001-0.536,0.035-0.804,0.054c-0.313,0.021-0.627,0.044-0.935,0.09
	c-0.264,0.041-0.521,0.1-0.78,0.158c-0.217,0.047-0.435,0.088-0.646,0.146c-0.388,0.11-0.767,0.243-1.14,0.391
	c-0.078,0.03-0.158,0.054-0.235,0.086c-2.348,0.987-4.366,2.719-5.685,4.987l-0.534,0.919l-0.885-0.59
	c-1.175-0.783-2.543-1.197-3.956-1.197c-0.245,0-0.486,0.013-0.725,0.037c-0.032,0.003-0.063,0.011-0.094,0.014
	c-3.551,0.408-6.319,3.43-6.319,7.09v0.917l-0.912,0.12c-4.235,0.367-7.553,3.986-7.553,8.238c0,4.564,3.714,8.277,8.278,8.277
	h30.114C47.967,50.338,51.68,46.625,51.68,42.061z"/>
</svg>
