<?xml version="1.0" encoding="utf-8"?>
<!-- Generator: Adobe Illustrator 15.1.0, SVG Export Plug-In . SVG Version: 6.00 Build 0)  -->
<!DOCTYPE svg PUBLIC "-//W3C//DTD SVG 1.1//EN" "http://www.w3.org/Graphics/SVG/1.1/DTD/svg11.dtd">
<svg version="1.1" id="Layer_1" xmlns="http://www.w3.org/2000/svg" xmlns:xlink="http://www.w3.org/1999/xlink" x="0px" y="0px"
	 width="56.69px" height="56.69px" viewBox="0 0 56.69 56.69" enable-background="new 0 0 56.69 56.69" xml:space="preserve">
<path d="M49.98,19.644c0.078-0.601,0.117-1.168,0.117-1.72c0-7.641-6.217-13.857-13.859-13.857c-4.576,0-8.874,2.298-11.442,6.058
	c-1.289-0.665-2.717-1.013-4.183-1.013c-4.743,0-8.654,3.633-9.096,8.297C6.61,18.248,3.01,22.454,3.01,27.526
	c0,5.667,4.611,10.276,10.278,10.276h11.804l-3.009,5.955h6.35l-4.171,8.867l11.804-11.066l-6.305,0.006l2.182-3.762h11.459
	c5.666,0,10.277-4.609,10.277-10.276C53.68,24.444,52.34,21.604,49.98,19.644z M43.402,35.803H13.289
	c-4.564,0-8.278-3.713-8.278-8.276c0-4.323,3.247-7.864,7.554-8.238l0.911-0.12v-0.917c0-3.938,3.202-7.141,7.139-7.141
	c1.413,0,2.781,0.414,3.956,1.198l0.885,0.59l0.534-0.92c2.121-3.647,6.048-5.913,10.25-5.913c6.539,0,11.859,5.319,11.859,11.857
	c0,0.618-0.059,1.266-0.18,1.981l-0.102,0.606l0.494,0.365c2.141,1.582,3.369,4.006,3.369,6.651
	C51.68,32.09,47.967,35.803,43.402,35.803z M23.344,47.174l-0.003,1c-0.002,0.551-0.449,0.996-1,0.996c-0.001,0-0.002,0-0.003,0
	c-0.553-0.002-0.999-0.449-0.997-1.002l0.003-1c0.002-0.551,0.449-0.998,1-0.998c0.001,0,0.002,0,0.003,0
	C22.9,46.172,23.346,46.621,23.344,47.174z M36.797,47.174l-0.004,1c-0.002,0.551-0.449,0.996-1,0.996h-0.002
	c-0.553-0.002-1-0.449-0.998-1.002l0.004-1c0.002-0.551,0.449-0.998,1-0.998h0.002C36.352,46.172,36.799,46.621,36.797,47.174z
	 M16.63,41.16l-0.01,3c-0.002,0.551-0.449,0.996-1,0.996c-0.001,0-0.002,0-0.003,0c-0.553-0.002-0.999-0.451-0.997-1.002l0.01-3
	c0.002-0.553,0.449-0.998,1-0.998c0.001,0,0.002,0,0.003,0C16.186,40.158,16.632,40.607,16.63,41.16z M16.612,47.16l-0.008,2.461
	c-0.002,0.551-0.449,0.996-1,0.996c-0.001,0-0.002,0-0.003,0c-0.553-0.002-0.999-0.451-0.997-1.002l0.008-2.461
	c0.002-0.553,0.449-0.998,1-0.998c0.001,0,0.002,0,0.003,0C16.167,46.158,16.614,46.607,16.612,47.16z M43.516,47.16l-0.008,2.461
	c-0.002,0.551-0.449,0.996-1,0.996c-0.002,0-0.002,0-0.004,0c-0.553-0.002-0.998-0.451-0.996-1.002l0.008-2.461
	c0.002-0.553,0.449-0.998,1-0.998h0.002C43.07,46.158,43.518,46.607,43.516,47.16z M43.533,41.16l-0.01,3
	c-0.002,0.551-0.449,0.996-1,0.996h-0.002c-0.553-0.002-1-0.451-0.998-1.002l0.01-3c0.002-0.553,0.449-0.998,1-0.998
	c0.002,0,0.002,0,0.004,0C43.09,40.158,43.535,40.607,43.533,41.16z"/>
</svg>
