<?xml version="1.0" encoding="utf-8"?>
<!-- Generator: Adobe Illustrator 15.1.0, SVG Export Plug-In . SVG Version: 6.00 Build 0)  -->
<!DOCTYPE svg PUBLIC "-//W3C//DTD SVG 1.1//EN" "http://www.w3.org/Graphics/SVG/1.1/DTD/svg11.dtd">
<svg version="1.1" id="Layer_1" xmlns="http://www.w3.org/2000/svg" xmlns:xlink="http://www.w3.org/1999/xlink" x="0px" y="0px"
	 width="56.69px" height="56.69px" viewBox="0 0 56.69 56.69" enable-background="new 0 0 56.69 56.69" xml:space="preserve">
<path d="M25.346,8.123l0.012-0.02c0-0.001-0.001-0.005-0.001-0.005c0-0.67,1.715-3.488,2.294-3.479
	c0.581,0.007,2.295,2.809,2.295,3.479c0,0,0,0.004,0,0.005l0.015,0.02h-0.017c-0.018,1.033-1.033,1.872-2.293,1.872
	c-1.256,0-2.271-0.839-2.292-1.872H25.346z M43.928,26.69v0.015l0.021-0.014c0.001,0,0.004,0,0.006,0
	c0.668,0,3.472-1.713,3.477-2.294c0.008-0.58-2.809-2.294-3.477-2.294c-0.002,0-0.005,0.001-0.006,0.001l-0.021-0.012v0.013
	c-1.033,0.02-1.87,1.036-1.87,2.292C42.058,25.655,42.895,26.673,43.928,26.69z M11.377,22.108v-0.016l-0.021,0.013
	c-0.001,0-0.004,0-0.005,0c-0.669,0-3.472,1.714-3.479,2.294c-0.009,0.58,2.81,2.295,3.479,2.295c0.001,0,0.004-0.001,0.005-0.001
	l0.021,0.012v-0.014c1.033-0.019,1.871-1.036,1.871-2.292C13.248,23.142,12.41,22.126,11.377,22.108z M37.838,14.213
	c0.889,0.89,2.199,1.016,2.942,0.297l0.011,0.01l0.006-0.021c0.002-0.001,0.004-0.003,0.005-0.005
	c0.471-0.472,1.242-3.666,0.835-4.082c-0.404-0.415-3.607,0.365-4.079,0.838c-0.004,0.002-0.005,0.003-0.005,0.006L37.53,11.26
	l0.009,0.008C36.821,12.014,36.949,13.324,37.838,14.213z M17.751,37.545l0.022-0.008l-0.008-0.006
	c0.719-0.746,0.589-2.059-0.299-2.945c-0.89-0.891-2.198-1.016-2.942-0.297l-0.012-0.012l-0.004,0.023
	c-0.002,0-0.004,0.004-0.004,0.004c-0.474,0.473-1.245,3.666-0.839,4.08c0.406,0.42,3.61-0.363,4.082-0.836
	C17.75,37.549,17.751,37.545,17.751,37.545z M54.076,45.186c0,4.243-3.453,7.695-7.697,7.695H24.646
	c-4.244,0-7.697-3.452-7.697-7.695c0-3.726,2.594-6.826,6.162-7.537c0.056-0.455,0.16-0.896,0.301-1.319
	c-5.019-1.775-8.435-6.526-8.435-11.931c0-1.822,0.396-3.611,1.152-5.259H8.107c-3.029,0-5.493-2.464-5.493-5.493
	s2.464-5.493,5.493-5.493h0.107c0.893-2.56,3.343-4.344,6.108-4.344c2.036,0,3.919,0.943,5.14,2.548
	c3.167,0.081,5.763,2.478,6.167,5.557c0.679-0.113,1.356-0.19,2.022-0.19c6.988,0,12.674,5.686,12.674,12.675
	c0,1.264-0.205,2.497-0.574,3.692c0.479-0.069,0.964-0.116,1.456-0.116c5.67,0,10.282,4.611,10.282,10.279
	c0,0.364-0.022,0.736-0.069,1.129C53.094,40.837,54.076,42.964,54.076,45.186z M8.107,17.14h9.151h2.04
	c0.027,0,0.047-0.001,0.072-0.001c0.117-0.001,0.233-0.006,0.345-0.019c0.274-0.026,0.539-0.079,0.794-0.151
	c0.15-0.043,0.291-0.107,0.435-0.166c0.095-0.038,0.194-0.068,0.285-0.112c0.197-0.097,0.383-0.212,0.562-0.337
	c0.025-0.017,0.054-0.031,0.079-0.049c1.015-0.74,1.694-1.908,1.788-3.248l0.026-0.375c-0.038-2.39-1.987-4.325-4.386-4.325H18.39
	l-0.295-0.465C17.27,6.588,15.859,5.81,14.323,5.81c-2.103,0-3.941,1.492-4.372,3.549l-0.166,0.795H8.107
	c-1.926,0-3.493,1.567-3.493,3.493S6.182,17.14,8.107,17.14z M24.43,34.385c0.082-0.109,0.168-0.216,0.256-0.32
	c0.072-0.085,0.142-0.172,0.218-0.253c0.147-0.157,0.3-0.31,0.461-0.453c0.081-0.071,0.167-0.136,0.25-0.203
	c0.105-0.086,0.212-0.17,0.323-0.25c0.089-0.063,0.179-0.124,0.271-0.184c0.124-0.08,0.251-0.155,0.38-0.228
	c0.08-0.044,0.157-0.091,0.239-0.132c0.209-0.107,0.425-0.204,0.646-0.289c0.048-0.019,0.099-0.032,0.147-0.05
	c0.186-0.066,0.374-0.126,0.566-0.177c0.075-0.02,0.151-0.036,0.227-0.054c0.177-0.04,0.357-0.072,0.539-0.099
	c0.072-0.011,0.145-0.022,0.218-0.031c0.25-0.027,0.503-0.046,0.761-0.046c1.021,0,2.016,0.224,2.927,0.653
	c0.27-0.375,0.567-0.724,0.881-1.055c0.074-0.078,0.154-0.147,0.23-0.223c0.254-0.253,0.519-0.494,0.796-0.718
	c0.087-0.07,0.176-0.136,0.266-0.202c0.298-0.226,0.607-0.434,0.928-0.625c0.069-0.042,0.138-0.084,0.209-0.124
	c0.397-0.225,0.807-0.427,1.23-0.598c0.616-1.376,0.928-2.831,0.928-4.328c0-5.886-4.788-10.675-10.674-10.675
	c-0.679,0-1.373,0.073-2.071,0.214c-0.384,2.063-1.752,3.775-3.627,4.625c-0.018,0.008-0.035,0.016-0.053,0.024
	c-0.292,0.129-0.593,0.238-0.907,0.323c-0.036,0.01-0.071,0.017-0.107,0.026c-0.315,0.08-0.637,0.143-0.97,0.174
	c-0.183,0.02-0.379,0.03-0.576,0.03h-0.969c-0.914,1.607-1.396,3.414-1.396,5.259c0,4.635,2.983,8.701,7.339,10.13
	C24.351,34.479,24.393,34.435,24.43,34.385z M52.076,45.186c0-1.819-0.846-3.488-2.319-4.576l-0.494-0.365l0.102-0.605
	c0.085-0.503,0.126-0.956,0.126-1.385c0-4.565-3.716-8.279-8.282-8.279c-0.966,0-1.905,0.187-2.792,0.508
	c-0.21,0.076-0.417,0.158-0.618,0.25c-0.042,0.019-0.081,0.041-0.123,0.061c-0.321,0.151-0.63,0.326-0.928,0.517
	c-0.118,0.075-0.235,0.151-0.35,0.232c-0.122,0.088-0.242,0.178-0.359,0.271c-0.181,0.145-0.356,0.296-0.524,0.456
	c-0.077,0.073-0.152,0.146-0.227,0.223c-0.186,0.189-0.363,0.39-0.53,0.599c-0.058,0.07-0.113,0.143-0.168,0.215
	c-0.191,0.256-0.375,0.519-0.538,0.799l-0.534,0.919l-0.885-0.59c-0.801-0.534-1.735-0.816-2.7-0.816
	c-0.299,0-0.588,0.036-0.871,0.088c-0.074,0.014-0.147,0.029-0.22,0.046c-0.267,0.062-0.528,0.138-0.776,0.241
	c-0.011,0.005-0.022,0.007-0.033,0.012c-0.265,0.112-0.515,0.254-0.753,0.409c-0.049,0.032-0.097,0.066-0.145,0.1
	c-0.215,0.152-0.419,0.317-0.606,0.501c-0.017,0.016-0.035,0.029-0.05,0.046c-0.203,0.204-0.384,0.428-0.548,0.664
	c-0.031,0.046-0.059,0.094-0.089,0.141c-0.489,0.76-0.781,1.659-0.781,2.628l0.102,1.009l-1.014,0.017
	c-2.963,0.257-5.198,2.693-5.198,5.668c0,3.141,2.556,5.695,5.697,5.695h21.733C49.521,50.881,52.076,48.326,52.076,45.186z"/>
</svg>
