<?xml version="1.0" encoding="utf-8"?>
<!-- Generator: Adobe Illustrator 15.1.0, SVG Export Plug-In . SVG Version: 6.00 Build 0)  -->
<!DOCTYPE svg PUBLIC "-//W3C//DTD SVG 1.1//EN" "http://www.w3.org/Graphics/SVG/1.1/DTD/svg11.dtd">
<svg version="1.1" id="Layer_1" xmlns="http://www.w3.org/2000/svg" xmlns:xlink="http://www.w3.org/1999/xlink" x="0px" y="0px"
	 width="56.69px" height="56.69px" viewBox="0 0 56.69 56.69" enable-background="new 0 0 56.69 56.69" xml:space="preserve">
<path d="M51.058,32.523c-1.336,0.338-2.706,0.509-4.072,0.509c-7.474,0-14.061-5.043-16.019-12.264
	c-1.524-5.628-0.041-11.521,3.969-15.766l1.692-1.791l-2.462,0.105c-1.498,0.063-2.984,0.293-4.418,0.682
	c-3.94,1.068-7.375,3.271-10.016,6.376c-1.215-1.345-2.933-2.129-4.783-2.129c-2.766,0-5.216,1.784-6.108,4.344H8.733
	c-3.028,0-5.492,2.464-5.492,5.493s2.464,5.493,5.492,5.493h6.159c0.012,1.735,0.232,3.458,0.687,5.133
	c0.177,0.655,0.422,1.336,0.71,2.058c-2.402,1.884-3.954,4.804-3.954,8.085c0,0.363,0.022,0.735,0.068,1.127
	c-1.694,1.464-2.654,3.548-2.654,5.805c0,4.243,3.453,7.695,7.697,7.695H39.18c4.244,0,7.697-3.452,7.697-7.695
	c0-1.871-0.655-3.585-1.759-4.917c2.865-1.659,5.28-4.005,7.035-6.848l1.296-2.099L51.058,32.523z M5.241,18.083
	c0-1.926,1.566-3.493,3.492-3.493h1.678l0.166-0.795c0.431-2.057,2.27-3.549,4.372-3.549c1.397,0,2.685,0.648,3.528,1.744
	l-0.578,0.802h1.117h0.909c2.422,0,4.393,1.971,4.393,4.394c0,2.274-1.705,4.152-3.977,4.37c-0.112,0.013-0.229,0.018-0.346,0.019
	c-0.024,0-0.044,0.001-0.07,0.001h-4.983H8.733C6.808,21.576,5.241,20.009,5.241,18.083z M39.18,51.479H17.447
	c-3.142,0-5.697-2.555-5.697-5.695c0-1.819,0.846-3.488,2.32-4.577l0.493-0.365l-0.102-0.605c-0.085-0.503-0.126-0.956-0.126-1.384
	c0-2.925,1.528-5.494,3.824-6.967c0.267-0.17,0.541-0.323,0.822-0.461c0.077-0.038,0.153-0.076,0.232-0.112
	c0.324-0.146,0.655-0.276,0.994-0.38c0.04-0.012,0.082-0.02,0.122-0.031c0.306-0.088,0.617-0.155,0.932-0.207
	c0.091-0.016,0.182-0.03,0.274-0.042c0.357-0.047,0.717-0.079,1.081-0.079c2.934,0,5.676,1.582,7.157,4.13l0.534,0.92l0.886-0.591
	c0.8-0.535,1.733-0.817,2.699-0.817c2.687,0,4.873,2.187,4.872,4.904v0.917l0.913,0.079c0.334,0.029,0.656,0.095,0.971,0.18
	c0.095,0.025,0.187,0.061,0.28,0.091c0.221,0.072,0.437,0.155,0.645,0.253c0.095,0.045,0.188,0.092,0.28,0.142
	c0.208,0.112,0.408,0.238,0.6,0.374c0.07,0.05,0.143,0.097,0.211,0.149c1.344,1.051,2.212,2.681,2.212,4.48
	C44.877,48.924,42.321,51.479,39.18,51.479z M43.556,39.446c-0.837-0.574-1.796-0.993-2.841-1.201
	c-0.153-1.252-0.647-2.398-1.382-3.351c-0.013-0.016-0.022-0.033-0.035-0.049c-0.089-0.112-0.185-0.218-0.279-0.324
	c-0.04-0.046-0.077-0.095-0.119-0.139c-0.061-0.064-0.128-0.124-0.191-0.187c-0.081-0.08-0.16-0.163-0.246-0.239
	c-0.017-0.015-0.034-0.027-0.05-0.041c-0.75-0.656-1.641-1.154-2.623-1.437c-0.089-0.025-0.181-0.042-0.27-0.063
	c-0.114-0.028-0.228-0.061-0.344-0.082c-0.072-0.014-0.147-0.02-0.221-0.031c-0.347-0.055-0.699-0.089-1.062-0.089
	c-1.021,0-2.017,0.224-2.928,0.654c-1.919-2.672-5.035-4.296-8.349-4.296c-0.384,0-0.762,0.025-1.135,0.066
	c-0.114,0.012-0.226,0.035-0.338,0.052c-0.26,0.038-0.519,0.08-0.773,0.137c-0.131,0.029-0.259,0.065-0.389,0.1
	c-0.234,0.062-0.466,0.13-0.693,0.208c-0.131,0.045-0.26,0.093-0.389,0.143c-0.228,0.089-0.45,0.187-0.669,0.29
	c-0.078,0.037-0.159,0.063-0.236,0.103c-0.198-0.521-0.356-1.007-0.486-1.483c-0.407-1.506-0.618-3.053-0.63-4.611h3.088
	c0.197,0,0.396-0.012,0.576-0.03c3.292-0.315,5.775-3.051,5.775-6.36c0-0.324-0.032-0.64-0.079-0.951
	c-0.008-0.058-0.016-0.116-0.026-0.173c-0.053-0.298-0.126-0.589-0.22-0.872c-0.016-0.048-0.035-0.095-0.052-0.143
	c-0.213-0.598-0.512-1.154-0.883-1.656c-0.015-0.02-0.029-0.04-0.044-0.06c-0.807-1.063-1.937-1.866-3.245-2.261
	c2.302-2.484,5.21-4.248,8.501-5.14c0.527-0.144,1.063-0.262,1.604-0.356c-3.26,4.522-4.324,10.233-2.838,15.719
	c2.193,8.09,9.574,13.74,17.948,13.74c0.694,0,1.39-0.04,2.081-0.118C47.549,36.775,45.68,38.314,43.556,39.446z"/>
</svg>
