<?xml version="1.0" encoding="utf-8"?>
<!-- Generator: Adobe Illustrator 15.1.0, SVG Export Plug-In . SVG Version: 6.00 Build 0)  -->
<!DOCTYPE svg PUBLIC "-//W3C//DTD SVG 1.1//EN" "http://www.w3.org/Graphics/SVG/1.1/DTD/svg11.dtd">
<svg version="1.1" id="Layer_1" xmlns="http://www.w3.org/2000/svg" xmlns:xlink="http://www.w3.org/1999/xlink" x="0px" y="0px"
	 width="56.69px" height="56.69px" viewBox="0 0 56.69 56.69" enable-background="new 0 0 56.69 56.69" xml:space="preserve">
<path d="M50.184,40.273c-1.73,0.438-3.506,0.659-5.276,0.659c-9.685,0-18.221-6.535-20.758-15.893
	c-1.976-7.293-0.054-14.931,5.143-20.431l1.693-1.792l-2.463,0.106c-1.897,0.081-3.778,0.372-5.589,0.862
	C9.372,7.463,1.329,21.488,5.005,35.052c3.004,11.082,13.112,18.821,24.582,18.821c2.246,0,4.494-0.301,6.682-0.894
	c6.265-1.699,11.596-5.681,15.011-11.211l1.297-2.099L50.184,40.273z M35.745,51.05c-2.017,0.546-4.089,0.823-6.158,0.823
	c-10.569,0-19.883-7.132-22.652-17.345C3.547,22.029,10.958,9.104,23.457,5.717c0.902-0.244,1.823-0.435,2.755-0.57
	c-4.437,5.8-5.932,13.26-3.992,20.417c2.772,10.227,12.103,17.369,22.688,17.369c1.104,0,2.209-0.079,3.306-0.235
	C45.092,46.765,40.74,49.694,35.745,51.05z M30.635,15.737l4.904-1.393l1.5-4.87l1.394,4.902l4.872,1.501l-4.905,1.394l-1.5,4.871
	l-1.393-4.902L30.635,15.737z M41.3,24.131l3.409-1.116l0.918-3.466l1.116,3.407l3.467,0.922l-3.408,1.114l-0.921,3.466
	l-1.114-3.407L41.3,24.131z"/>
</svg>
