<?xml version="1.0" encoding="utf-8"?>
<!-- Generator: Adobe Illustrator 15.1.0, SVG Export Plug-In . SVG Version: 6.00 Build 0)  -->
<!DOCTYPE svg PUBLIC "-//W3C//DTD SVG 1.1//EN" "http://www.w3.org/Graphics/SVG/1.1/DTD/svg11.dtd">
<svg version="1.1" id="Layer_1" xmlns="http://www.w3.org/2000/svg" xmlns:xlink="http://www.w3.org/1999/xlink" x="0px" y="0px"
	 width="56.69px" height="56.69px" viewBox="0 0 56.69 56.69" enable-background="new 0 0 56.69 56.69" xml:space="preserve">
<path d="M49.98,20.434c0.078-0.601,0.117-1.168,0.117-1.72c0-7.641-6.217-13.857-13.859-13.857c-4.576,0-8.874,2.298-11.442,6.058
	c-1.289-0.665-2.717-1.013-4.183-1.013c-4.743,0-8.654,3.633-9.096,8.297C6.61,19.039,3.01,23.244,3.01,28.316
	c0,5.667,4.611,10.277,10.278,10.277h30.114c5.666,0,10.277-4.61,10.277-10.277C53.68,25.234,52.34,22.395,49.98,20.434z
	 M43.402,36.594H13.289c-4.564,0-8.278-3.713-8.278-8.277c0-4.322,3.247-7.863,7.554-8.237l0.911-0.12v-0.917
	c0-3.938,3.202-7.141,7.139-7.141c1.413,0,2.781,0.414,3.956,1.198l0.885,0.59l0.534-0.92c2.121-3.647,6.048-5.913,10.25-5.913
	c6.539,0,11.859,5.319,11.859,11.857c0,0.618-0.059,1.266-0.18,1.981l-0.102,0.606l0.494,0.365c2.141,1.583,3.369,4.006,3.369,6.651
	C51.68,32.881,47.967,36.594,43.402,36.594z M17.603,49.838c0,1.104-0.893,1.996-1.996,1.996s-1.996-0.893-1.996-1.996
	s0.893-1.996,1.996-1.996S17.603,48.734,17.603,49.838z M23.691,41.932c0,0.736-0.597,1.334-1.333,1.334s-1.333-0.598-1.333-1.334
	s0.597-1.332,1.333-1.332S23.691,41.195,23.691,41.932z M31.057,49.422c0,1.104-0.893,1.996-1.996,1.996
	c-1.103,0-1.996-0.893-1.996-1.996s0.893-1.996,1.996-1.996C30.164,47.426,31.057,48.318,31.057,49.422z M44.535,49.422
	c0,1.104-0.893,1.996-1.996,1.996s-1.996-0.893-1.996-1.996s0.893-1.996,1.996-1.996S44.535,48.318,44.535,49.422z M37.107,41.932
	c0,0.736-0.596,1.334-1.332,1.334s-1.334-0.598-1.334-1.334s0.598-1.332,1.334-1.332S37.107,41.195,37.107,41.932z"/>
</svg>
