<?xml version="1.0" encoding="utf-8"?>
<!-- Generator: Adobe Illustrator 15.1.0, SVG Export Plug-In . SVG Version: 6.00 Build 0)  -->
<!DOCTYPE svg PUBLIC "-//W3C//DTD SVG 1.1//EN" "http://www.w3.org/Graphics/SVG/1.1/DTD/svg11.dtd">
<svg version="1.1" id="Layer_1" xmlns="http://www.w3.org/2000/svg" xmlns:xlink="http://www.w3.org/1999/xlink" x="0px" y="0px"
	 width="56.69px" height="56.69px" viewBox="0 0 56.69 56.69" enable-background="new 0 0 56.69 56.69" xml:space="preserve">
<path d="M40.992,52.829c-4.387,0-7.955-3.568-7.955-7.955c0-1.077,0.213-2.123,0.631-3.107c0.217-0.508,0.803-0.746,1.313-0.528
	c0.508,0.216,0.744,0.803,0.527,1.312c-0.313,0.735-0.471,1.518-0.471,2.324c0,3.283,2.672,5.955,5.955,5.955
	s5.955-2.672,5.955-5.955s-2.672-5.954-5.955-5.954c-0.086,0-0.168,0.002-0.25,0.006L10.445,38.92c-0.553,0-1-0.448-1-1
	c0-0.553,0.448-1,1-1l0,0l30.249,0.007c0.066-0.005,0.18-0.007,0.299-0.007c4.387,0,7.955,3.568,7.955,7.954
	C48.947,49.261,45.379,52.829,40.992,52.829z M23.269,44.734 M26.992,45.476c0-2.48-2.019-4.498-4.5-4.498l-0.15,0.002
	l-11.896-0.002l0,0c-0.552,0-1,0.447-1,1c0,0.552,0.447,1,1,1l11.921,0.002l0.126-0.002c1.379,0,2.5,1.121,2.5,2.498
	c0,1.378-1.121,2.499-2.5,2.499c-1.377,0-2.498-1.121-2.498-2.499c0-0.553-0.447-1-1-1s-1,0.447-1,1c0,2.48,2.018,4.499,4.498,4.499
	C24.973,49.975,26.992,47.956,26.992,45.476z M51.18,25.015c0-2.778-1.199-5.338-3.313-7.116c0.066-0.522,0.1-1.017,0.1-1.501
	c0-6.913-5.625-12.537-12.539-12.537c-4.109,0-7.97,2.048-10.3,5.406c-1.149-0.578-2.418-0.88-3.72-0.88
	c-4.283,0-7.819,3.26-8.256,7.46c-4.413,0.793-7.642,4.591-7.642,9.167c0,5.142,4.184,9.324,9.325,9.324h27.02
	C46.996,34.339,51.18,30.156,51.18,25.015z M24.901,11.445l0.885,0.59l0.534-0.92c1.885-3.241,5.374-5.254,9.108-5.254
	c5.811,0,10.539,4.727,10.539,10.537c0,0.55-0.053,1.125-0.16,1.76l-0.104,0.606l0.496,0.365c1.895,1.4,2.98,3.545,2.98,5.886
	c0,4.039-3.285,7.324-7.324,7.324h-27.02c-4.039,0-7.325-3.285-7.325-7.324c0-3.825,2.873-6.958,6.684-7.29l0.911-0.116v-0.917
	c0-3.477,2.827-6.305,6.303-6.305C22.656,10.388,23.864,10.753,24.901,11.445z"/>
</svg>
