<?xml version="1.0" encoding="utf-8"?>
<!-- Generator: Adobe Illustrator 15.1.0, SVG Export Plug-In . SVG Version: 6.00 Build 0)  -->
<!DOCTYPE svg PUBLIC "-//W3C//DTD SVG 1.1//EN" "http://www.w3.org/Graphics/SVG/1.1/DTD/svg11.dtd">
<svg version="1.1" id="Layer_1" xmlns="http://www.w3.org/2000/svg" xmlns:xlink="http://www.w3.org/1999/xlink" x="0px" y="0px"
	 width="56.69px" height="56.69px" viewBox="0 0 56.69 56.69" enable-background="new 0 0 56.69 56.69" xml:space="preserve">
<path d="M43.382,38.811H7.132c-0.553,0-1-0.447-1-1s0.447-1,1-1h36.25c0.553,0,1,0.447,1,1S43.935,38.811,43.382,38.811z
	 M51.132,42.453c0-0.553-0.447-1-1-1h-37.5c-0.553,0-1,0.447-1,1s0.447,1,1,1h37.5C50.685,43.453,51.132,43.006,51.132,42.453z
	 M39.507,47.096c0-0.553-0.447-1-1-1H9.257c-0.553,0-1,0.447-1,1s0.447,1,1,1h29.25C39.06,48.096,39.507,47.648,39.507,47.096z
	 M47.132,51.738c0-0.553-0.447-1-1-1h-29.5c-0.553,0-1,0.447-1,1s0.447,1,1,1h29.5C46.685,52.738,47.132,52.291,47.132,51.738z
	 M38.834,17.302l4.905-1.394l-4.872-1.501l-1.394-4.902l-1.5,4.87l-4.904,1.393l4.872,1.502l1.393,4.903L38.834,17.302z
	 M47.236,25.022l3.408-1.114l-3.467-0.922l-1.116-3.407l-0.918,3.465l-3.409,1.116l3.467,0.92l1.114,3.407L47.236,25.022z
	 M24.429,6.639c-0.092,0.024-0.184,0.048-0.275,0.073C12.85,9.776,5.939,20.744,7.869,32.113h16.497
	c-1.179-1.941-2.075-4.036-2.678-6.258C19.891,19.22,20.925,12.334,24.429,6.639 M29,3.953c-5.208,5.513-7.51,13.523-5.381,21.379
	c0.909,3.354,2.54,6.313,4.666,8.782H6.238C3.16,21.284,10.814,8.256,23.63,4.782C25.422,4.296,27.221,4.029,29,3.953L29,3.953z"/>
</svg>
