<?xml version="1.0" encoding="utf-8"?>
<!-- Generator: Adobe Illustrator 15.1.0, SVG Export Plug-In . SVG Version: 6.00 Build 0)  -->
<!DOCTYPE svg PUBLIC "-//W3C//DTD SVG 1.1//EN" "http://www.w3.org/Graphics/SVG/1.1/DTD/svg11.dtd">
<svg version="1.1" id="Layer_1" xmlns="http://www.w3.org/2000/svg" xmlns:xlink="http://www.w3.org/1999/xlink" x="0px" y="0px"
	 width="56.69px" height="56.69px" viewBox="0 0 56.69 56.69" enable-background="new 0 0 56.69 56.69" xml:space="preserve">
<path d="M37.134,30.773c-0.153,0-0.303-0.003-0.454-0.01l-31.382,0.01c-0.553,0-1-0.447-1-1c0-0.552,0.447-1,1-1l31.426-0.009
	c0.165,0.006,0.287,0.009,0.411,0.009c4.708,0,8.538-3.83,8.538-8.538c0-4.707-3.83-8.537-8.538-8.537
	c-4.707,0-8.537,3.83-8.537,8.537c0,1.158,0.228,2.28,0.675,3.334c0.217,0.509-0.021,1.096-0.528,1.312
	c-0.509,0.218-1.097-0.021-1.312-0.528c-0.554-1.303-0.835-2.688-0.835-4.117c0-5.81,4.727-10.537,10.537-10.537
	s10.538,4.728,10.538,10.537C47.672,26.046,42.944,30.773,37.134,30.773z M52.394,39.742c0-3.998-3.252-7.25-7.25-7.25
	c-0.105,0-0.209,0.002-0.27,0.006L5.297,32.492l0,0c-0.552,0-1,0.447-1,1c0,0.552,0.448,1,1,1l39.62,0.005l0.227-0.005
	c2.895,0,5.25,2.355,5.25,5.25s-2.355,5.25-5.25,5.25s-5.25-2.355-5.25-5.25c0-0.713,0.14-1.402,0.415-2.05
	c0.217-0.508-0.021-1.096-0.528-1.312c-0.508-0.218-1.095,0.019-1.312,0.528c-0.382,0.896-0.575,1.85-0.575,2.833
	c0,3.998,3.252,7.25,7.25,7.25S52.394,43.74,52.394,39.742z M5.297,26.867l11.721-0.004l0.229,0.004
	c3.197,0,5.799-2.602,5.799-5.799s-2.602-5.799-5.799-5.799c-3.198,0-5.8,2.602-5.8,5.799c0,0.786,0.154,1.549,0.46,2.267
	c0.216,0.508,0.805,0.742,1.312,0.528c0.508-0.217,0.745-0.804,0.528-1.312c-0.199-0.469-0.3-0.967-0.3-1.483
	c0-2.095,1.704-3.799,3.8-3.799c2.095,0,3.799,1.704,3.799,3.799s-1.704,3.799-3.799,3.799l-0.207-0.004L5.296,24.867
	c-0.552,0-1,0.448-1,1C4.297,26.42,4.745,26.867,5.297,26.867C5.297,26.867,5.297,26.867,5.297,26.867z M20.464,37.534
	c0-0.553-0.447-1-1-1H5.297c-0.552,0-1,0.447-1,1s0.448,1,1,1h14.167C20.017,38.534,20.464,38.087,20.464,37.534z"/>
</svg>
