<?xml version="1.0" encoding="utf-8"?>
<!-- Generator: Adobe Illustrator 15.1.0, SVG Export Plug-In . SVG Version: 6.00 Build 0)  -->
<!DOCTYPE svg PUBLIC "-//W3C//DTD SVG 1.1//EN" "http://www.w3.org/Graphics/SVG/1.1/DTD/svg11.dtd">
<svg version="1.1" id="Layer_1" xmlns="http://www.w3.org/2000/svg" xmlns:xlink="http://www.w3.org/1999/xlink" x="0px" y="0px"
	 width="56.69px" height="56.69px" viewBox="0 0 56.69 56.69" enable-background="new 0 0 56.69 56.69" xml:space="preserve">
<path d="M43.402,45.215H13.289c-5.667,0-10.278-4.611-10.278-10.277c0-5.074,3.6-9.28,8.508-10.119
	c0.441-4.664,4.353-8.297,9.096-8.297c1.466,0,2.894,0.348,4.183,1.013c2.568-3.76,6.866-6.058,11.442-6.058
	c7.643,0,13.859,6.216,13.859,13.857c0,0.552-0.039,1.119-0.117,1.721c2.359,1.961,3.699,4.801,3.699,7.883
	C53.68,40.604,49.068,45.215,43.402,45.215z M20.614,18.521c-3.937,0-7.139,3.203-7.139,7.141v0.917l-0.912,0.12
	c-4.235,0.367-7.553,3.987-7.553,8.239c0,4.564,3.714,8.277,8.278,8.277h30.114c4.564,0,8.277-3.713,8.277-8.277
	c0-2.645-1.229-5.07-3.369-6.652l-0.494-0.365l0.102-0.605c0.121-0.716,0.18-1.364,0.18-1.981c0-6.538-5.32-11.857-11.859-11.857
	c-4.201,0-8.128,2.266-10.25,5.913l-0.534,0.919l-0.885-0.59C23.395,18.935,22.027,18.521,20.614,18.521z"/>
</svg>
