<?xml version="1.0" encoding="utf-8"?>
<!-- Generator: Adobe Illustrator 15.1.0, SVG Export Plug-In . SVG Version: 6.00 Build 0)  -->
<!DOCTYPE svg PUBLIC "-//W3C//DTD SVG 1.1//EN" "http://www.w3.org/Graphics/SVG/1.1/DTD/svg11.dtd">
<svg version="1.1" id="Layer_1" xmlns="http://www.w3.org/2000/svg" xmlns:xlink="http://www.w3.org/1999/xlink" x="0px" y="0px"
	 width="56.69px" height="56.69px" viewBox="0 0 56.69 56.69" enable-background="new 0 0 56.69 56.69" xml:space="preserve">
<path d="M53.474,10.852v2h-7.75v-2H53.474z M50.224,15.211h-4.5v2h4.5V15.211z M45.724,21.57h7.75v-2h-7.75V21.57z M50.224,23.93
	h-4.5v2h4.5V23.93z M45.724,30.289h7.75v-2h-7.75V30.289z M46.932,41.685c0,5.583-4.542,10.125-10.125,10.125
	s-10.125-4.542-10.125-10.125c0-2.943,1.273-5.654,3.412-7.547l-2.189-3.792l-6.856,11.876l2.047,7.645
	c0.144,0.533-0.173,1.082-0.707,1.225c-0.086,0.023-0.174,0.034-0.259,0.034c-0.442,0-0.846-0.294-0.966-0.741l-1.529-5.712
	l-2.707,4.688c-0.186,0.32-0.521,0.5-0.867,0.5c-0.17,0-0.342-0.043-0.499-0.134c-0.479-0.276-0.642-0.888-0.366-1.366l2.644-4.578
	l-5.54,1.484c-0.086,0.023-0.174,0.034-0.26,0.034c-0.441,0-0.846-0.294-0.965-0.741c-0.143-0.533,0.174-1.082,0.707-1.225
	l7.472-2.002l6.921-11.987H12.458L6.862,34.94c-0.195,0.195-0.451,0.293-0.707,0.293s-0.512-0.098-0.707-0.293
	c-0.391-0.391-0.391-1.023,0-1.414l4.182-4.182H4.217c-0.552,0-1-0.448-1-0.999c0-0.552,0.448-1,1-1h5.287L5.448,23.29
	c-0.391-0.391-0.391-1.023,0-1.414s1.023-0.391,1.414,0l5.47,5.47h13.84l-6.857-11.877l-7.642-2.048
	c-0.534-0.143-0.851-0.691-0.707-1.225c0.143-0.533,0.693-0.851,1.225-0.707l5.71,1.53l-2.706-4.686
	c-0.275-0.479-0.111-1.09,0.367-1.366c0.477-0.276,1.089-0.112,1.365,0.366l2.645,4.58l1.484-5.543
	c0.143-0.533,0.688-0.853,1.225-0.707c0.533,0.143,0.85,0.691,0.707,1.225l-2.002,7.475l6.919,11.983l3.777-6.542v-9.797
	c0-2.826,2.299-5.125,5.125-5.125s5.125,2.299,5.125,5.125V32.96C45.031,34.777,46.932,38.066,46.932,41.685z M29.637,27.345h2.045
	v-3.542L29.637,27.345z M31.682,32.888v-3.543h-2.046L31.682,32.888z M44.932,41.685c0-3.07-1.706-5.845-4.453-7.24l-0.547-0.278
	v-24.16c0-1.724-1.402-3.125-3.125-3.125s-3.125,1.401-3.125,3.125v24.16l-0.547,0.278c-2.747,1.396-4.453,4.171-4.453,7.24
	c0,4.48,3.645,8.125,8.125,8.125S44.932,46.165,44.932,41.685z M43.266,41.685c0,3.561-2.897,6.458-6.459,6.458
	c-3.561,0-6.458-2.897-6.458-6.458c0-2.919,1.972-5.482,4.796-6.233l0.371-0.099v-5.835h2.583v5.834l0.371,0.1
	C41.294,36.203,43.266,38.767,43.266,41.685z M37.126,37.38c-0.154-0.684-0.842-1.134-1.543-0.974
	c-2.448,0.554-4.158,2.695-4.158,5.207c0,0.711,0.579,1.29,1.29,1.29s1.29-0.579,1.29-1.29c0-1.277,0.902-2.409,2.147-2.69
	C36.845,38.764,37.282,38.072,37.126,37.38z"/>
</svg>
