<?xml version="1.0" encoding="utf-8"?>
<!-- Generator: Adobe Illustrator 15.1.0, SVG Export Plug-In . SVG Version: 6.00 Build 0)  -->
<!DOCTYPE svg PUBLIC "-//W3C//DTD SVG 1.1//EN" "http://www.w3.org/Graphics/SVG/1.1/DTD/svg11.dtd">
<svg version="1.1" id="Layer_1" xmlns="http://www.w3.org/2000/svg" xmlns:xlink="http://www.w3.org/1999/xlink" x="0px" y="0px"
	 width="56.69px" height="56.69px" viewBox="0 0 56.69 56.69" enable-background="new 0 0 56.69 56.69" xml:space="preserve">
<path d="M51.688,33.816c1.207-1.721,1.867-3.785,1.867-5.899c0-3.035-1.373-5.938-3.699-7.882c0.078-0.601,0.117-1.168,0.117-1.721
	c0-7.641-6.217-13.857-13.859-13.857c-4.576,0-8.874,2.298-11.442,6.058c-1.289-0.666-2.717-1.013-4.183-1.013
	c-4.743,0-8.654,3.633-9.096,8.297c-4.908,0.839-8.508,5.046-8.508,10.119c0,4.858,3.431,8.983,8.049,10.012
	c-0.652,1.32-1.028,2.801-1.028,4.371c0,5.477,4.456,9.934,9.933,9.934H42.17c0.359,0,0.715-0.021,1.051-0.059
	c6.033-0.578,10.584-5.592,10.584-11.66C53.805,38.023,53.018,35.717,51.688,33.816z M12.077,36.113
	c-4.073-0.535-7.191-4.037-7.191-8.196c0-4.323,3.247-7.865,7.553-8.238l0.912-0.12v-0.917c0-3.938,3.202-7.141,7.139-7.141
	c1.413,0,2.781,0.414,3.956,1.197l0.885,0.59l0.534-0.919c2.121-3.647,6.048-5.913,10.25-5.913c6.539,0,11.859,5.319,11.859,11.857
	c0,0.618-0.059,1.266-0.18,1.981l-0.102,0.606l0.494,0.365c2.141,1.582,3.369,4.007,3.369,6.652c0,1.52-0.422,3.008-1.203,4.297
	c-1.063-1.063-2.305-1.893-3.658-2.473c-0.02-0.008-0.035-0.018-0.055-0.025c-0.297-0.125-0.604-0.234-0.912-0.334
	c-0.059-0.02-0.113-0.043-0.172-0.063c-0.281-0.086-0.566-0.154-0.854-0.219c-0.092-0.021-0.182-0.051-0.273-0.07
	c-0.275-0.055-0.555-0.09-0.834-0.126c-0.109-0.015-0.215-0.037-0.326-0.049c-0.389-0.039-0.783-0.06-1.182-0.06h-0.18
	c-2.227-3.181-5.816-5.063-9.711-5.063c-5.315,0-9.993,3.585-11.419,8.635h-0.938c-0.366,0-0.728,0.023-1.083,0.063
	c-0.082,0.008-0.161,0.025-0.242,0.035c-0.279,0.039-0.556,0.084-0.827,0.145c-0.085,0.018-0.168,0.043-0.252,0.064
	c-0.267,0.066-0.529,0.141-0.787,0.229c-0.082,0.027-0.162,0.059-0.243,0.09c-0.256,0.094-0.507,0.197-0.753,0.313
	c-0.078,0.037-0.156,0.074-0.233,0.113c-0.245,0.123-0.483,0.256-0.717,0.396c-0.071,0.043-0.144,0.086-0.214,0.131
	c-0.244,0.156-0.479,0.324-0.708,0.502c-0.051,0.039-0.104,0.074-0.154,0.115c-0.558,0.449-1.065,0.955-1.516,1.514
	C12.099,36.09,12.086,36.102,12.077,36.113z M43.016,50.188c-0.277,0.029-0.561,0.047-0.846,0.047H19.838
	c-4.374,0-7.933-3.559-7.933-7.934c0-1.631,0.496-3.148,1.343-4.41l0.053-0.072c0.033-0.049,0.071-0.094,0.105-0.143
	c0.154-0.213,0.318-0.418,0.492-0.615c0.043-0.049,0.087-0.096,0.131-0.143c0.17-0.184,0.348-0.359,0.533-0.523
	c0.037-0.033,0.072-0.068,0.11-0.102c0.463-0.398,0.968-0.742,1.505-1.023c0.019-0.008,0.037-0.016,0.055-0.025
	c0.244-0.125,0.494-0.236,0.75-0.336c0.055-0.02,0.11-0.039,0.165-0.061c0.224-0.08,0.45-0.15,0.681-0.211
	c0.07-0.018,0.14-0.037,0.211-0.055c0.225-0.053,0.452-0.092,0.683-0.125c0.071-0.01,0.143-0.025,0.215-0.033
	c0.298-0.035,0.599-0.055,0.901-0.055h2.533l0.166-0.797c0.948-4.541,5.01-7.838,9.658-7.838c3.393,0,6.508,1.719,8.332,4.598
	l0.295,0.465h1.264c0.354,0,0.701,0.021,1.047,0.059c0.119,0.012,0.232,0.035,0.35,0.053c0.225,0.033,0.447,0.066,0.666,0.113
	c0.143,0.031,0.283,0.072,0.424,0.109c0.186,0.049,0.371,0.1,0.555,0.158c0.15,0.051,0.301,0.107,0.449,0.166
	c0.164,0.063,0.326,0.129,0.486,0.201c0.152,0.068,0.301,0.141,0.449,0.217c0.152,0.078,0.301,0.16,0.449,0.248
	c0.143,0.082,0.283,0.166,0.422,0.256c0.154,0.102,0.305,0.211,0.453,0.32c0.119,0.088,0.24,0.172,0.355,0.266
	c0.207,0.168,0.406,0.348,0.602,0.535c0.047,0.045,0.098,0.086,0.145,0.131c0.244,0.244,0.477,0.504,0.695,0.775
	c1.355,1.67,2.172,3.797,2.172,6.111C51.805,45.549,48.031,49.705,43.016,50.188z"/>
</svg>
