<?xml version="1.0" encoding="utf-8"?>
<!-- Generator: Adobe Illustrator 15.1.0, SVG Export Plug-In . SVG Version: 6.00 Build 0)  -->
<!DOCTYPE svg PUBLIC "-//W3C//DTD SVG 1.1//EN" "http://www.w3.org/Graphics/SVG/1.1/DTD/svg11.dtd">
<svg version="1.1" id="Layer_1" xmlns="http://www.w3.org/2000/svg" xmlns:xlink="http://www.w3.org/1999/xlink" x="0px" y="0px"
	 width="56.69px" height="56.69px" viewBox="0 0 56.69 56.69" enable-background="new 0 0 56.69 56.69" xml:space="preserve">
<path d="M38.908,13.095H16.533c-0.553,0-1-0.448-1-1s0.447-1,1-1h22.375c0.553,0,1,0.448,1,1S39.461,13.095,38.908,13.095z
	 M45.658,16.738c0-0.552-0.447-1-1-1H7.033c-0.552,0-1,0.448-1,1s0.448,1,1,1h37.625C45.211,17.738,45.658,17.29,45.658,16.738z
	 M39.908,21.381c0-0.552-0.447-1-1-1H7.158c-0.552,0-1,0.448-1,1s0.448,1,1,1h31.75C39.461,22.381,39.908,21.934,39.908,21.381z
	 M50.658,26.024c0-0.553-0.447-1-1-1h-31.75c-0.553,0-1,0.447-1,1s0.447,1,1,1h31.75C50.211,27.024,50.658,26.577,50.658,26.024z
	 M48.658,30.666c0-0.553-0.447-1-1-1h-36.25c-0.553,0-1,0.447-1,1s0.447,1,1,1h36.25C48.211,31.666,48.658,31.219,48.658,30.666z
	 M45.408,35.309c0-0.553-0.447-1-1-1h-37.5c-0.552,0-1,0.447-1,1s0.448,1,1,1h37.5C44.961,36.309,45.408,35.861,45.408,35.309z
	 M50.783,39.953c0-0.553-0.447-1-1-1h-29.25c-0.553,0-1,0.447-1,1s0.447,1,1,1h29.25C50.336,40.953,50.783,40.506,50.783,39.953z
	 M48.408,44.596c0-0.553-0.447-1-1-1h-29.5c-0.553,0-1,0.447-1,1s0.447,1,1,1h29.5C47.961,45.596,48.408,45.148,48.408,44.596z"/>
</svg>
