<?xml version="1.0" encoding="utf-8"?>
<!-- Generator: Adobe Illustrator 15.1.0, SVG Export Plug-In . SVG Version: 6.00 Build 0)  -->
<!DOCTYPE svg PUBLIC "-//W3C//DTD SVG 1.1//EN" "http://www.w3.org/Graphics/SVG/1.1/DTD/svg11.dtd">
<svg version="1.1" id="Layer_1" xmlns="http://www.w3.org/2000/svg" xmlns:xlink="http://www.w3.org/1999/xlink" x="0px" y="0px"
	 width="56.69px" height="56.69px" viewBox="0 0 56.69 56.69" enable-background="new 0 0 56.69 56.69" xml:space="preserve">
<path d="M41.741,10.852v2h-7.75v-2H41.741z M38.491,15.211h-4.5v2h4.5V15.211z M33.991,21.57h7.75v-2h-7.75V21.57z M38.491,23.93
	h-4.5v2h4.5V23.93z M33.991,30.289h7.75v-2h-7.75V30.289z M35.199,41.685c0,5.583-4.542,10.125-10.125,10.125
	s-10.125-4.542-10.125-10.125c0-3.618,1.9-6.906,5-8.725V10.006c0-2.826,2.299-5.125,5.125-5.125s5.125,2.299,5.125,5.125V32.96
	C33.299,34.777,35.199,38.066,35.199,41.685z M33.199,41.685c0-3.07-1.706-5.845-4.453-7.24l-0.547-0.278v-24.16
	c0-1.724-1.402-3.125-3.125-3.125s-3.125,1.401-3.125,3.125v24.16l-0.547,0.278c-2.747,1.396-4.453,4.171-4.453,7.24
	c0,4.48,3.645,8.125,8.125,8.125S33.199,46.165,33.199,41.685z M31.533,41.685c0,3.561-2.897,6.458-6.459,6.458
	c-3.561,0-6.458-2.897-6.458-6.458c0-2.919,1.972-5.482,4.796-6.233l0.371-0.099v-22.23h2.583v22.229l0.371,0.1
	C29.562,36.203,31.533,38.767,31.533,41.685z M25.394,37.38c-0.154-0.684-0.842-1.134-1.543-0.974
	c-2.448,0.554-4.158,2.695-4.158,5.207c0,0.711,0.579,1.29,1.29,1.29s1.29-0.579,1.29-1.29c0-1.277,0.902-2.409,2.147-2.69
	C25.112,38.764,25.55,38.072,25.394,37.38z"/>
</svg>
