<?xml version="1.0" encoding="utf-8"?>
<!-- Generator: Adobe Illustrator 15.1.0, SVG Export Plug-In . SVG Version: 6.00 Build 0)  -->
<!DOCTYPE svg PUBLIC "-//W3C//DTD SVG 1.1//EN" "http://www.w3.org/Graphics/SVG/1.1/DTD/svg11.dtd">
<svg version="1.1" id="Layer_1" xmlns="http://www.w3.org/2000/svg" xmlns:xlink="http://www.w3.org/1999/xlink" x="0px" y="0px"
	 width="56.69px" height="56.69px" viewBox="0 0 56.69 56.69" enable-background="new 0 0 56.69 56.69" xml:space="preserve">
<path d="M28.346,43.64c-8.434,0-15.294-6.86-15.294-15.294c0-8.432,6.86-15.292,15.294-15.292c8.431,0,15.291,6.86,15.291,15.292
	C43.637,36.779,36.777,43.64,28.346,43.64z M28.346,15.053c-7.33,0-13.294,5.963-13.294,13.292c0,7.331,5.964,13.294,13.294,13.294
	c7.33,0,13.291-5.964,13.291-13.294C41.637,21.016,35.676,15.053,28.346,15.053z M31.17,8.421l-0.018-0.024c0-0.001,0-0.006,0-0.006
	c0-0.819-2.098-4.25-2.809-4.257c-0.709-0.012-2.808,3.438-2.808,4.257c0,0,0.001,0.005,0.001,0.006l-0.015,0.024h0.017
	c0.023,1.266,1.268,2.292,2.805,2.292c1.542,0,2.786-1.026,2.807-2.292H31.17z M25.522,48.271l0.017,0.024c0,0,0,0.005,0,0.008
	c0,0.817,2.098,4.247,2.808,4.255c0.712,0.011,2.808-3.438,2.808-4.255c0-0.003,0-0.008,0-0.008l0.016-0.024h-0.018
	c-0.021-1.266-1.268-2.29-2.806-2.29c-1.54,0-2.784,1.024-2.804,2.29H25.522z M48.27,31.169l0.025-0.016c0,0,0.004,0,0.008,0
	c0.818,0,4.248-2.098,4.256-2.809c0.01-0.711-3.438-2.808-4.256-2.808c-0.004,0-0.008,0.001-0.008,0.001l-0.025-0.016v0.018
	c-1.264,0.021-2.289,1.268-2.289,2.805c0,1.54,1.025,2.786,2.289,2.807V31.169z M8.421,25.522L8.396,25.54c-0.001,0-0.004,0-0.006,0
	c-0.818,0-4.25,2.097-4.258,2.808c-0.011,0.71,3.439,2.81,4.258,2.81c0.002,0,0.005-0.002,0.006-0.002l0.025,0.014v-0.016
	c1.266-0.023,2.291-1.27,2.291-2.806c0-1.54-1.025-2.784-2.291-2.806V25.522z M16.252,12.261l-0.027-0.006
	c-0.001-0.003-0.004-0.005-0.004-0.005c-0.58-0.579-4.489-1.521-4.998-1.025c-0.51,0.496,0.446,4.418,1.024,4.997
	c0.004,0.002,0.004,0.002,0.007,0.004l0.007,0.026l0.01-0.01c0.912,0.88,2.518,0.723,3.605-0.364
	c1.088-1.089,1.243-2.693,0.363-3.603L16.252,12.261z M40.439,44.43l0.027,0.007c0,0.003,0.004,0.005,0.004,0.008
	c0.58,0.576,4.488,1.521,4.996,1.021c0.512-0.496-0.443-4.418-1.023-4.994c0-0.005-0.004-0.005-0.006-0.005l-0.008-0.027l-0.01,0.01
	c-0.912-0.88-2.518-0.722-3.605,0.366c-1.088,1.087-1.242,2.69-0.361,3.602L40.439,44.43z M44.43,16.252l0.006-0.026
	c0.004-0.001,0.006-0.004,0.008-0.006c0.576-0.578,1.52-4.488,1.021-4.997c-0.494-0.508-4.416,0.446-4.994,1.025
	c-0.004,0.002-0.004,0.004-0.004,0.008l-0.027,0.006l0.01,0.01c-0.879,0.912-0.723,2.517,0.365,3.604
	c1.088,1.089,2.691,1.243,3.602,0.363L44.43,16.252z M12.261,40.439l-0.006,0.027c-0.002,0-0.004,0.005-0.004,0.005
	c-0.58,0.579-1.524,4.488-1.027,4.994c0.498,0.515,4.42-0.442,4.997-1.021c0.003,0,0.004-0.005,0.004-0.005l0.027-0.01l-0.01-0.008
	c0.88-0.912,0.722-2.52-0.366-3.606c-1.088-1.088-2.691-1.243-3.602-0.364L12.261,40.439z"/>
</svg>
