<?xml version="1.0" encoding="utf-8"?>
<!-- Generator: Adobe Illustrator 15.1.0, SVG Export Plug-In . SVG Version: 6.00 Build 0)  -->
<!DOCTYPE svg PUBLIC "-//W3C//DTD SVG 1.1//EN" "http://www.w3.org/Graphics/SVG/1.1/DTD/svg11.dtd">
<svg version="1.1" id="Layer_1" xmlns="http://www.w3.org/2000/svg" xmlns:xlink="http://www.w3.org/1999/xlink" x="0px" y="0px"
	 width="56.69px" height="56.69px" viewBox="0 0 56.69 56.69" enable-background="new 0 0 56.69 56.69" xml:space="preserve">
<path d="M53.073,10.852v2h-7.75v-2H53.073z M49.823,15.211h-4.5v2h4.5V15.211z M45.323,21.571h7.75v-2h-7.75V21.571z M49.823,23.93
	h-4.5v2h4.5V23.93z M45.323,30.289h7.75v-2h-7.75V30.289z M46.531,41.685c0,5.583-4.542,10.125-10.125,10.125
	c-2.363,0-4.535-0.82-6.261-2.183c-0.664,1.287-1.821,2.938-2.314,2.93c-0.71-0.008-2.808-3.438-2.808-4.254
	c0-0.004,0-0.008,0-0.008l-0.017-0.025h0.021c0.018-1.108,0.974-2.03,2.245-2.243c-0.372-0.779-0.651-1.611-0.813-2.485
	c-7.789-0.698-13.922-7.229-13.922-15.195c0-8.432,6.86-15.292,15.294-15.292c1.19,0,2.339,0.156,3.45,0.417v-3.464
	c0-2.826,2.299-5.125,5.125-5.125s5.125,2.299,5.125,5.125V32.96C44.631,34.777,46.531,38.066,46.531,41.685z M31.281,32.96V15.524
	c-1.102-0.298-2.255-0.471-3.45-0.471c-7.33,0-13.294,5.963-13.294,13.292c0,6.806,5.15,12.404,11.754,13.172
	C26.35,37.967,28.229,34.75,31.281,32.96z M44.531,41.685c0-3.07-1.706-5.845-4.453-7.24l-0.547-0.278v-24.16
	c0-1.724-1.402-3.125-3.125-3.125s-3.125,1.401-3.125,3.125v24.16l-0.547,0.278c-2.747,1.396-4.454,4.171-4.454,7.24
	c0,4.48,3.645,8.125,8.125,8.125S44.531,46.165,44.531,41.685z M42.865,41.685c0,3.561-2.897,6.458-6.459,6.458
	c-3.561,0-6.458-2.897-6.458-6.458c0-2.919,1.972-5.482,4.796-6.233l0.371-0.099v-22.23h2.583v22.229l0.371,0.1
	C40.894,36.203,42.865,38.767,42.865,41.685z M36.726,37.38c-0.154-0.684-0.842-1.134-1.543-0.974
	c-2.448,0.554-4.158,2.695-4.158,5.207c0,0.711,0.579,1.29,1.29,1.29s1.29-0.579,1.29-1.29c0-1.277,0.902-2.409,2.147-2.69
	C36.444,38.764,36.882,38.072,36.726,37.38z M25.024,8.422c0.023,1.266,1.268,2.292,2.805,2.292c1.542,0,2.787-1.026,2.807-2.292
	h0.021l-0.018-0.024V8.392c0-0.818-2.098-4.25-2.81-4.258c-0.709-0.012-2.808,3.439-2.808,4.258l0.001,0.006l-0.015,0.024H25.024z
	 M7.907,25.542v-0.019L7.881,25.54c-0.001,0-0.004,0-0.006,0c-0.818,0-4.25,2.098-4.258,2.808c-0.011,0.708,3.439,2.808,4.258,2.808
	c0.002,0,0.005-0.002,0.006-0.002l0.025,0.014v-0.016c1.266-0.023,2.291-1.27,2.291-2.804C10.198,26.808,9.172,25.563,7.907,25.542z
	 M11.74,16.227l0.007,0.026l0.01-0.01c0.912,0.879,2.518,0.723,3.605-0.365s1.243-2.692,0.363-3.602l0.013-0.014l-0.027-0.006
	c-0.001-0.004-0.004-0.006-0.005-0.006c-0.579-0.578-4.488-1.521-4.997-1.025c-0.51,0.496,0.446,4.418,1.024,4.997
	C11.737,16.226,11.737,16.226,11.74,16.227z M15.362,40.814c-1.088-1.088-2.691-1.242-3.602-0.363l-0.014-0.012l-0.006,0.027
	c-0.002,0-0.004,0.004-0.004,0.004c-0.58,0.58-1.524,4.488-1.027,4.994c0.498,0.516,4.42-0.441,4.997-1.021
	c0.003,0,0.004-0.004,0.004-0.004l0.027-0.01l-0.01-0.008C16.608,43.51,16.45,41.902,15.362,40.814z"/>
</svg>
